<?xml version="1.0" encoding="UTF-8" standalone="no"?>
<!DOCTYPE svg PUBLIC "-//W3C//DTD SVG 1.1//EN" "http://www.w3.org/Graphics/SVG/1.1/DTD/svg11.dtd">
<svg width="100%" height="100%" viewBox="0 0 550 700" version="1.1" xmlns="http://www.w3.org/2000/svg" xmlns:xlink="http://www.w3.org/1999/xlink" xml:space="preserve" xmlns:serif="http://www.serif.com/" style="fill-rule:evenodd;clip-rule:evenodd;stroke-linecap:round;stroke-linejoin:round;">
    <path id="path1891" d="M164.502,55.116C134.481,54.101 111.137,51.354 96.143,47.903C84.524,45.228 89.05,48.163 92.048,50.431C101.503,57.582 127.455,62.456 148.92,62.456M113.226,58.751C118.942,64.95 129.883,68.228 138.103,70.774C149.34,74.254 170.202,76.417 194.097,75.502M140.076,71.608C144.124,74.864 151.776,78 156.708,79.245C167.784,82.34 180.059,82.197 193.398,82.197M155.959,79.172C165.563,88.651 187.489,88.866 196.795,89.457C203.227,89.664 208.693,89.452 213.441,89.004M195.289,89.761C199.281,94.493 206.149,96.433 210.876,96.568C215.519,96.771 224.782,93.79 228.339,89.688M209.66,96.946C211.092,99.699 213.646,101.47 217.223,101.484C224.37,101.598 229.84,98.091 235.148,93.921M217.979,101.862C219.536,100.305 219.716,104.509 224.03,104.509C230.023,104.498 235.284,101.704 240.292,98.459M225.921,104.509C230.831,108.609 238.751,107.132 244.451,102.618M230.306,106.629C229.886,108.122 229.325,111.567 229.023,113.362M248.99,111.316C243.914,111.402 232.633,112.529 229.159,113.46C224.93,114.594 216.317,117.804 213.818,122.132C211.717,127.371 219.466,133.23 223.799,132.796M250.124,115.098C239.203,118.024 223.577,122.439 223.577,132.649C223.577,137.337 231.781,139.263 233.863,139.679M250.957,117.898C244.389,123.182 231.683,130.144 233.028,137.187C234.004,142.295 239.787,143.83 244.348,143.839M252.771,122.662C248.136,128.42 242.896,137.499 244.081,142.875C245.386,148.8 253.864,147.479 257.392,144.035M258.822,135.141C258.158,138.568 257.833,141.865 257.405,144.069C259.532,147.837 266.926,148.812 271.279,146.486C270.906,143.041 271.161,138.693 270.59,135.579M271.279,146.049C275.418,148.145 282.057,146.278 282.862,142.394C281.777,140.337 279.437,137.698 277.938,135.742M283.403,142.705C286.187,144.065 291.298,142.227 292.101,139.301C289.037,134.772 285.15,132.429 281.89,127.956M292.081,139.359C294.943,137.737 296.427,135.049 295.959,132.44C292.103,129.168 288.355,126.521 284.896,122.393M253.528,115.854C256.164,121.24 262.267,124.134 267.178,117.315C268.609,114.726 275.192,113.595 277.731,115.098M261.091,121.527C262.09,126.894 257.041,132.752 252.015,129.847M256.175,130.603C257.693,132.794 262.696,133.919 265.57,131.033C268.349,128.242 269.32,122.512 266.215,118.709M265.57,131.248C265.76,132.824 268.037,133.476 271.242,132.657C274.56,131.81 275.871,123.534 274.268,120.059M272.592,131.953C278.475,133.797 283.263,127.132 284.603,121.854M272.325,120.719C277.834,117.912 282.845,121.623 287.941,116.233M284.607,121.806C285.785,121.217 288.977,120.94 290.588,120.014C292.985,118.638 294.6,116.375 295.883,113.964M288.964,109.923C296.457,115.048 305.109,115.852 313.501,112.829C319.41,110.403 335.285,110.243 340.106,108.951C344.739,107.71 346.683,106.65 348.122,106.993C351.105,107.706 351.733,110.16 351.474,112.829C354.101,108.083 355.238,103.382 351.749,99.274C349.016,96.058 345.566,94.98 340.685,94.195C334.291,93.166 329.112,93.431 323.668,93.327C318.224,93.223 315.016,92.072 310.632,92.03M287.563,102.24C290.878,101.986 294.849,100.18 297.396,97.324M293.31,100.502C294.403,102.621 295.924,103.678 299.366,103.678M299.665,108.291C303.044,108.207 305.476,106.062 307.984,104.131M304.588,106.727C306.477,108.578 308.791,109.532 311.388,109.426M311.766,102.618C314.173,102.364 317.682,100.91 318.951,99.215M315.659,101.588C316.903,103.046 318.702,103.445 320.886,103.642M256.931,97.702C255.123,98.639 250.935,98.901 247.626,98.61C250.193,102.883 254.611,103.615 259.2,103.375M270.093,96.266C267.743,98.669 265.412,99.696 262.451,101.031C263.85,103.062 268.579,103.534 271.68,103.375M137.807,53.834C148.623,68.428 176.671,69.338 212.353,67.802M259.2,91.652C248.176,89.877 238.571,84.872 229.703,78.416C224.5,73.33 217.176,69.608 210.665,66.769C198.317,61.383 183.827,56.087 161.346,55.187C165.358,55.052 188.933,53.947 196.202,54.211C217.764,55.624 238.958,62.996 255.04,77.659C258.96,82.744 263.636,81.044 269.351,80.69C279.872,79.967 290.299,79.608 301.543,81.233M300.043,84.466C305.061,74.35 316.37,69.502 327.584,70.76M325.758,73.121C335.218,60.241 351.696,57.333 368.87,53.456C386.473,49.483 405.501,49.926 423.868,49.778C435.83,49.682 457.47,48.454 465.304,44.38C469.044,42.435 467.033,47.433 465.163,49.303C456.812,57.654 436.761,56.348 423.06,54.316M305.99,87.766C312.161,81.967 319.739,84.343 328.027,82.575C331.97,81.735 337.108,79.252 342.776,79.172C350.798,79.055 364.658,68.337 373.571,61.131C381.645,54.81 397.743,51.521 405.62,50.053M179.282,68.157C182.274,74.415 204.194,79.673 227.202,76.053M204.867,77.562C209.347,85.019 222.45,87.171 231.125,79.675M218.298,84.202C222.562,90.914 236.083,91.62 240.18,84.806M231.427,90.088C234.786,96.806 243.814,94.777 248.933,89.031M334.664,98.935C338.322,98.755 340.154,98.72 343.311,100.241M337.26,99.007C337.839,101.015 340.265,101.37 341.516,99.588M253.247,62.714C254.555,50.355 300.592,50.697 302.684,63.367C299.766,81.612 256.068,82.561 253.247,62.714ZM256.347,70.056C267.864,61.573 288.282,62.415 298.559,70.528M260.674,67.521C271.15,75.319 283.778,74.277 293.676,67.626M265.423,54.721L258.046,38.671L247.7,43.461L254.704,59.353M261.825,55.568L259.418,50.268L255.627,51.858L257.88,57.319M247.737,43.461C247.723,43.404 245.328,44.478 245.328,44.478C244.431,42.491 242.516,38.663 242.516,38.663L257.783,31.953L260.1,37.751C260.1,37.751 258.562,38.415 258.066,38.663M242.621,38.727L239.807,32.518L243.539,31.02L246.211,36.903M427.175,49.988C420.816,61.399 391.327,57.608 383.774,55.535M410.7,57.673C402.165,64.745 382.848,63.346 372.737,61.891M399.601,62.388C396.159,72.644 372.693,70.44 364.195,68.588M378.227,70.219C371.569,78.15 359.608,78.628 353.264,75.604M371.629,75.257C364.431,85.519 347.764,87.646 341.516,79.193M352.448,84.741C352.243,93.22 326.477,89.478 314.595,88.983M457.825,53.679C447.019,64.856 421.78,61.187 410.533,57.819M438.446,61.121C426.42,72.474 406.965,70.184 396.338,66.63M417.712,69.404C406.824,81.186 380.222,81.199 368.111,79.193M384.917,80.172C379.82,90.721 358.066,93.26 342.985,90.125M367.472,90.516C363.207,96.495 356.086,96.921 348.992,96.814M254.2,33.98L251.385,27.772L255.117,26.274L257.79,32.157M248.505,36.325L246.227,31.122L249.959,29.624L252.095,34.501M291.621,55.344L298.999,38.785L309.345,43.575L301.764,60.532M294.998,56.305L297.627,50.381L301.417,51.972L298.702,58.143M309.307,43.575C309.322,43.518 311.717,44.592 311.717,44.592C312.614,42.604 314.528,38.776 314.528,38.776L299.262,32.066L296.945,37.864C296.945,37.864 298.483,38.529 298.979,38.776M314.424,38.84L317.238,32.631L313.506,31.134L310.834,37.016M302.845,34.094L305.659,27.885L301.927,26.388L299.255,32.27M308.539,36.439L310.818,31.235L307.086,29.738L304.95,34.615M284.182,53.805L284.29,35.836L272.957,35.753L272.653,53.736M280.341,53.539L280.316,48.093L276.278,48.024L276.177,53.702M273.125,35.702L270.714,35.712L270.624,29.856L287.158,30.066L286.876,35.827L284.313,35.837M270.557,29.891L270.702,24.416L274.647,24.343L274.649,29.731M282.757,30.021L282.901,24.545L286.847,24.472L286.849,29.86M277.397,29.887L277.541,24.88L280.549,24.941L280.551,29.86M261.581,45.984L272.528,43.51M260.306,43.472L272.603,40.548M295.622,45.928L284.675,43.453M296.897,43.416L284.6,40.492M264.749,42.212L263.37,37.383L266.878,36.635L268.114,41.512M292.266,42.174L293.645,37.345L290.138,36.597L288.901,41.475" style="fill:none;stroke:rgb(255,232,134);stroke-width:1px;"/>
    <path id="path2073" d="M351.839,111.152C351.844,105.203 349.777,104.351 342.587,105.479" style="fill:none;stroke:rgb(255,232,134);stroke-width:1px;stroke-linecap:butt;stroke-linejoin:miter;"/>
    <path id="path2877" d="M197.814,641.193C195.528,639.515 191.992,634.891 197.373,630.656C199.084,632.982 200.954,634.708 203.642,635.533L197.814,641.193ZM205.278,638.387L211.507,632.365C206.638,631.384 202.122,629.595 200.007,625.826C186.592,632.325 188.349,641.015 193.539,645.133L187.107,651.63C190.892,652.336 196.537,654.968 199.801,658.261C212.244,652.63 214.04,644.488 205.278,638.387ZM201.239,642.219L195.561,647.932C195.561,647.932 200.708,650.169 203.01,653.419C209.321,648.702 203.192,643.684 201.239,642.219Z" style="fill:none;stroke:rgb(255,232,134);stroke-width:1px;stroke-linecap:butt;stroke-linejoin:miter;"/>
    <path id="path1985" d="M240.455,623.551C235.698,625.836 236.881,631.606 238.939,636.222C226.218,641.863 225.015,660.411 236.754,667.166C246.755,661.124 250.421,651.621 248.193,643.219C246.26,635.93 242.623,630.038 240.455,623.551ZM240.103,638.867C229.944,643.639 233.992,657.483 239.373,661.416C245.655,655.728 243.218,644.348 240.103,638.867Z" style="fill:none;stroke:rgb(255,232,134);stroke-width:1px;stroke-linecap:butt;stroke-linejoin:miter;"/>
    <path id="path1989" d="M262.512,637.169C245.852,644.694 248.821,668.075 263.43,668.075C270.435,668.075 272.224,661.717 272.224,661.717C266.208,664.044 260.654,662.811 258.243,658.268L271.255,646.027C267.513,643.885 264.147,640.569 262.512,637.169ZM259.795,642.497C255.37,645.473 254.331,651.293 256.73,655.779L264.975,648.185C262.92,646.967 260.848,644.843 259.795,642.497Z" style="fill:none;stroke:rgb(255,232,134);stroke-width:1px;stroke-linecap:butt;stroke-linejoin:miter;"/>
    <path id="path1995" d="M299.184,636.56L295.033,640.31L299.321,644.167L299.383,658.933C299.383,662.063 307.229,664.914 307.229,664.914L312.808,660.214L317.107,664.14L321.037,659.994L316.373,655.745L316.352,639.505L311.875,634.281L307.784,637.889L310.942,641.93L310.958,657.681C309.489,660.225 304.416,660.416 304.416,656.134L304.416,641.452L299.184,636.56Z" style="fill:none;stroke:rgb(255,232,134);stroke-width:1px;stroke-linecap:butt;stroke-linejoin:miter;"/>
    <path id="path1997" d="M324.935,631.274L321.146,635.823L324.953,639.165L324.93,659.346L327.424,660.885L330.781,657.914L330.687,638.034L334.053,635.109L336.82,637.462L336.788,656.245L339.577,658.122L342.864,655.074L342.833,636.44L346.214,633.914C346.214,633.914 349.288,634.18 349.288,638.588L349.164,651.574L356.099,654.472L358.929,649.251L354.61,647.339L354.691,634.205L348.256,628.119L341.426,633.458L335.799,629.288L329.155,635.233L324.935,631.274Z" style="fill:none;stroke:rgb(255,232,134);stroke-width:1px;stroke-linecap:butt;stroke-linejoin:miter;"/>
    <path id="path2954" d="M26.181,548.35C27.057,546.758 28.105,544.393 29.952,544.351C35.949,545.894 37.511,563.79 38.091,571.93C41.021,567.397 41.668,562.75 38.995,558.61C39.975,557.526 41.82,556.376 43.481,556.739C49.111,563.713 45.198,576.22 33.141,580.429C33.062,571.219 30.951,557.969 26.181,548.35Z" style="fill:none;stroke:rgb(255,232,134);stroke-width:1px;stroke-linecap:butt;stroke-linejoin:miter;"/>
    <path id="path2155" d="M162.637,594.01C192.912,627.493 336.961,634.507 387.36,594.024M362.745,592.652L361.691,608.415M489.425,551.808C489.425,544.091 489.332,536.993 489.952,528.211C498.432,520.158 514.286,515.04 522.021,522.162C533.801,534.605 536.087,573.273 530.835,583.708C516.338,612.516 431.794,637.087 392.24,642.73M27.979,522.16C33.864,537.983 60.385,554.118 89.282,564.65C135.322,581.431 187.269,588.051 187.269,592.667C187.269,600.823 166.64,589.913 162.635,594.015C155.907,600.903 155.929,643.926 159.866,649.054C217.382,684.799 327.057,684.207 390.132,649.053C394.069,643.926 394.09,600.902 387.363,594.014C383.358,589.913 362.729,600.823 362.729,592.667C362.729,588.051 414.676,581.43 460.716,564.65C489.613,554.118 516.134,537.982 522.019,522.159M157.758,642.73C118.204,637.087 33.66,612.517 19.163,583.708C13.911,573.273 16.205,534.602 27.981,522.161C35.712,515.04 51.566,520.158 60.046,528.212C60.666,536.993 60.573,544.091 60.573,551.808M187.232,592.652L188.286,609.534" style="fill:none;stroke:rgb(255,232,134);stroke-width:1px;stroke-linecap:butt;stroke-linejoin:miter;"/>
    <path id="path2041" d="M273.671,641.938L277.103,638.01L282.467,642.113L286.693,638.489L293.357,643.689L288.995,647.831L284.083,644.056L282.412,645.503L282.627,660.583L286.544,663.361L283.574,667.915L277.357,663.914L277.208,644.567L273.671,641.938Z" style="fill:none;stroke:rgb(255,232,134);stroke-width:1px;stroke-linecap:butt;stroke-linejoin:miter;"/>
    <path id="path2064" d="M84.499,573.211C82.912,577.078 81.454,579.585 78.679,582.548L78.866,606.7L87.134,611.742L89.39,606.185L84.725,603.141L84.685,587.918L88.302,587.909L88.368,582.734L84.774,582.774L84.499,573.211Z" style="fill:none;stroke:rgb(255,232,134);stroke-width:1px;stroke-linecap:butt;stroke-linejoin:miter;"/>
    <path id="path2053" d="M499.183,576.478C496.65,575.203 492.397,571.229 497.001,566.161C499.073,568.171 501.203,569.563 503.992,569.931L499.183,576.478ZM506.078,572.473L511.222,565.502C506.258,565.342 501.508,564.327 498.797,560.961C486.646,569.594 489.819,577.873 495.621,581.073L490.356,588.547C494.205,588.616 500.209,590.274 503.974,592.981C515.311,585.364 515.731,577.037 506.078,572.473ZM502.731,576.923L498.079,583.498C498.079,583.498 503.525,584.85 506.335,587.674C511.776,581.975 504.899,578.043 502.731,576.923Z" style="fill:none;stroke:rgb(255,232,134);stroke-width:1px;stroke-linecap:butt;stroke-linejoin:miter;"/>
    <path id="path2077" d="M440.814,590.512L445.295,593.919L445.263,613.89L448.052,615.767L451.339,612.719L451.308,592.751L454.689,590.152C454.689,590.152 457.764,590.637 457.764,595.045L457.639,607.542L464.574,610.929L467.405,605.708L463.085,603.308L463.166,590.663L456.731,584.576L449.901,589.916L444.274,585.745L440.814,590.512Z" style="fill:none;stroke:rgb(255,232,134);stroke-width:1px;stroke-linecap:butt;stroke-linejoin:miter;"/>
    <path id="path1982" d="M219.713,623.86C216.016,627.763 215.97,627.835 219.892,631.137C223.688,627.063 223.712,627.126 219.713,623.86ZM222.006,657.255L225.924,660.033L222.953,664.588L216.736,660.522L216.716,642.081L213.66,639.132L217.649,635.178L221.975,639.05L222.006,657.255Z" style="fill:none;stroke:rgb(255,232,134);stroke-width:1px;stroke-linecap:butt;stroke-linejoin:miter;"/>
    <g id="use2045" transform="matrix(1,0,0,1,-214.82,-64.4576)">
        <path d="M273.671,641.938L277.103,638.01L282.467,642.113L286.693,638.489L293.357,643.689L288.995,647.831L284.083,644.056L282.412,645.503L282.627,660.583L286.544,663.361L283.574,667.915L277.357,663.914L277.208,644.567L273.671,641.938Z" style="fill:none;stroke:rgb(255,232,134);stroke-width:1px;stroke-linecap:butt;stroke-linejoin:miter;"/>
    </g>
    <g id="use2050" transform="matrix(1,0,0,1,-167.198,-68.724)">
        <path d="M219.713,623.86C216.016,627.763 215.97,627.835 219.892,631.137C223.688,627.063 223.712,627.126 219.713,623.86ZM222.006,657.255L225.924,660.033L222.953,664.588L216.736,660.522L216.716,642.081L213.66,639.132L217.649,635.178L221.975,639.05L222.006,657.255Z" style="fill:none;stroke:rgb(255,232,134);stroke-width:1px;stroke-linecap:butt;stroke-linejoin:miter;"/>
    </g>
    <g id="use2056" transform="matrix(1,0,0,1,169.965,-60.4218)">
        <path d="M299.184,636.56L295.033,640.31L299.321,644.167L299.383,658.933C299.383,662.063 307.229,664.914 307.229,664.914L312.808,660.214L317.107,664.14L321.037,659.994L316.373,655.745L316.352,639.505L311.875,634.281L307.784,637.889L310.942,641.93L310.958,657.681C309.489,660.225 304.416,660.416 304.416,656.134L304.416,641.452L299.184,636.56Z" style="fill:none;stroke:rgb(255,232,134);stroke-width:1px;stroke-linecap:butt;stroke-linejoin:miter;"/>
    </g>
    <g id="use2058" transform="matrix(1,0,0,1,-205.711,-48.4297)">
        <path d="M299.184,636.56L295.033,640.31L299.321,644.167L299.383,658.933C299.383,662.063 307.229,664.914 307.229,664.914L312.808,660.214L317.107,664.14L321.037,659.994L316.373,655.745L316.352,639.505L311.875,634.281L307.784,637.889L310.942,641.93L310.958,657.681C309.489,660.225 304.416,660.416 304.416,656.134L304.416,641.452L299.184,636.56Z" style="fill:none;stroke:rgb(255,232,134);stroke-width:1px;stroke-linecap:butt;stroke-linejoin:miter;"/>
    </g>
    <g id="use2060" transform="matrix(1,0,0,1,39.7529,13.5591)">
        <path d="M84.499,573.211C82.912,577.078 81.454,579.585 78.679,582.548L78.866,606.7L87.134,611.742L89.39,606.185L84.725,603.141L84.685,587.918L88.302,587.909L88.368,582.734L84.774,582.774L84.499,573.211Z" style="fill:none;stroke:rgb(255,232,134);stroke-width:1px;stroke-linecap:butt;stroke-linejoin:miter;"/>
    </g>
    <g id="use2062" transform="matrix(1,0,0,1,329.938,14.7917)">
        <path d="M84.499,573.211C82.912,577.078 81.454,579.585 78.679,582.548L78.866,606.7L87.134,611.742L89.39,606.185L84.725,603.141L84.685,587.918L88.302,587.909L88.368,582.734L84.774,582.774L84.499,573.211Z" style="fill:none;stroke:rgb(255,232,134);stroke-width:1px;stroke-linecap:butt;stroke-linejoin:miter;"/>
    </g>
    <g id="use2064" transform="matrix(1,0,0,1,169.861,-45.8178)">
        <path d="M262.512,637.169C245.852,644.694 248.821,668.075 263.43,668.075C270.435,668.075 272.224,661.717 272.224,661.717C266.208,664.044 260.654,662.811 258.243,658.268L271.255,646.027C267.513,643.885 264.147,640.569 262.512,637.169ZM259.795,642.497C255.37,645.473 254.331,651.293 256.73,655.779L264.975,648.185C262.92,646.967 260.848,644.843 259.795,642.497Z" style="fill:none;stroke:rgb(255,232,134);stroke-width:1px;stroke-linecap:butt;stroke-linejoin:miter;"/>
    </g>
    <g id="use2067" transform="matrix(1,0,0,1,-118.176,-39.6715)">
        <path d="M262.512,637.169C245.852,644.694 248.821,668.075 263.43,668.075C270.435,668.075 272.224,661.717 272.224,661.717C266.208,664.044 260.654,662.811 258.243,658.268L271.255,646.027C267.513,643.885 264.147,640.569 262.512,637.169ZM259.795,642.497C255.37,645.473 254.331,651.293 256.73,655.779L264.975,648.185C262.92,646.967 260.848,644.843 259.795,642.497Z" style="fill:none;stroke:rgb(255,232,134);stroke-width:1px;stroke-linecap:butt;stroke-linejoin:miter;"/>
    </g>
    <path id="path9253" d="M246.074,221.314C245.171,224.548 245.725,227.177 247.167,228.97C247.469,229.345 247.924,229.515 248.292,229.814L249.471,230.521L250.011,322.689C250.011,323.589 250.456,324.303 251.074,324.783C251.692,325.263 252.474,325.505 253.261,325.533C254.048,325.561 254.848,325.383 255.48,324.908C256.112,324.433 256.542,323.666 256.542,322.689L258.761,230.189L258.48,230.189C258.946,229.9 259.498,229.728 259.886,229.345C261.546,227.71 262.322,225.17 261.386,222.001L246.074,221.314Z" style="fill:none;stroke:rgb(255,232,134);stroke-width:1px;stroke-linecap:butt;stroke-linejoin:miter;"/>
    <path id="path7459" d="M137.052,181.983L136.177,182.139C133.65,182.66 131.136,184.543 129.084,187.671C127.275,188.257 125.864,189.557 124.865,191.077C124.45,191.708 124.142,192.372 123.865,193.046C123.458,192.696 122.112,191.566 120.427,191.202L120.052,191.139L119.865,191.483C116.321,198.428 115.592,205.55 116.834,212.514C116.494,212.471 114.435,212.163 111.74,211.139L110.959,210.858L111.084,211.671C111.584,215.156 112.287,218.521 113.146,221.796C112.644,221.694 111.25,221.389 109.552,220.108L108.802,219.546L108.74,220.483C108.218,228.86 109.292,235.57 111.927,240.764C114.066,244.98 117.293,248.114 121.396,250.327C113.679,248.536 107.598,242.202 103.99,234.233L103.052,234.421C102.429,247.663 107.923,257.067 116.802,260.077C111.935,261.659 106.082,261.878 100.927,261.202L99.709,261.046L100.49,262.014C102.323,264.311 104.863,266.188 107.677,267.796C107.597,267.845 107.532,267.888 107.427,267.952C107.038,268.189 106.469,268.531 105.802,268.889C104.469,269.606 102.694,270.411 101.021,270.764L99.552,271.077L100.927,271.702C104.2,273.207 106.939,273.296 110.24,273.608C108.443,275.378 106.245,277.267 105.021,278.577L104.177,279.452L105.396,279.389C108.882,279.26 112.885,278.239 116.396,277.014C115.014,278.644 113.522,280.293 112.146,281.546L110.802,282.764L112.584,282.421C117.629,281.396 120.848,279.62 123.459,278.389C123.418,278.797 123.463,279.247 123.271,279.639C122.965,280.267 122.516,281.037 122.396,282.296L122.302,283.171L123.115,282.796C124.585,282.11 127.064,280.875 128.771,279.546C128.732,279.796 128.75,280.026 128.677,280.296C128.514,280.903 128.298,281.564 128.271,282.327L128.24,283.202L129.021,282.796C131.304,281.534 134.349,278.705 136.552,276.921C136.673,278.231 136.779,279.925 136.552,281.139L136.271,282.483L137.334,281.608C139.423,279.873 142.393,278.231 144.99,275.139C145.489,275.368 145.899,275.617 146.146,276.046C146.435,276.545 146.571,277.213 146.584,278.014L146.615,278.733L147.271,278.483C151.613,276.793 155.212,274.036 159.115,271.139C161.158,271.223 162.367,271.945 162.802,272.921C163.251,273.927 162.975,275.326 161.74,276.827C157.819,281.59 151.646,283.229 145.74,283.639C139.224,284.092 132.365,285.366 127.052,289.733C122.79,293.236 121.421,298.631 117.865,302.171C113.659,306.358 108.145,309.959 102.146,311.858L100.802,312.296L102.115,312.827C102.415,312.942 102.62,313.103 102.74,313.358C102.86,313.613 102.908,313.953 102.865,314.327C102.778,315.075 102.305,315.929 101.615,316.421C100.123,317.484 98.997,317.87 97.771,318.264C96.545,318.659 94.797,319.167 93.056,320.248L94.057,335.092C97.174,334.337 101.703,332.966 104.552,331.327C110.737,327.769 116.687,322.847 119.459,316.046C119.895,314.974 120.908,313.102 122.021,311.858C122.578,311.236 123.149,310.783 123.646,310.608C124.074,310.457 124.422,310.58 124.802,310.858C125.119,317.001 125.27,323.113 122.646,328.671C122.098,329.832 121.827,330.762 121.834,331.546C121.84,332.329 122.155,332.98 122.677,333.389C123.723,334.208 125.331,334.24 127.052,334.233C130.401,334.219 134.334,333.885 138.146,333.577C138.216,333.802 139.012,336.383 140.24,338.671C140.591,339.325 141.196,339.976 141.927,340.483C142.659,340.991 143.522,341.385 144.365,341.171C151.209,339.545 157.373,338.101 167.209,338.733C167.475,339.052 167.824,339.372 167.896,339.671C168.013,340.154 167.931,340.624 167.334,341.296C166.401,342.343 166.342,343.828 166.302,344.327L166.271,344.483L166.365,344.639C167.156,345.812 168.529,346.841 169.896,347.983C171.264,349.125 172.645,350.358 173.427,351.827L173.49,351.983L173.615,352.046C173.891,352.185 174.215,352.186 174.49,352.108C174.765,352.03 175.025,351.89 175.24,351.702C175.67,351.326 176.024,350.798 176.365,350.202C177.046,349.01 177.588,347.559 177.802,346.639C178.284,344.57 177.709,342.56 176.802,340.702C176.365,339.805 175.802,339.042 175.271,338.202C177.358,337.894 179.465,337.649 181.552,337.608C182.056,337.987 182.639,338.349 183.177,338.702C183.785,339.1 184.22,339.51 184.334,339.889L184.365,339.921L184.365,339.952C184.842,341.027 185.352,341.776 186.24,342.608L186.334,342.702L186.49,342.733C188.771,343.184 191.869,342.765 194.271,341.171L194.365,341.108L194.396,341.046C195.198,339.907 195.53,339.04 195.334,338.202C195.14,337.376 194.547,336.737 193.802,335.827C193.796,335.818 193.778,335.805 193.771,335.796C193.365,335.222 192.793,334.388 192.146,333.608C191.489,332.816 190.781,332.063 189.959,331.671L189.927,331.671C189.117,331.343 187.884,331.187 186.615,331.077C185.346,330.967 184.079,330.902 183.365,330.858L183.334,330.858C177.888,330.809 175.897,330.622 170.427,330.608L170.427,330.796C169.741,330.124 168.956,329.543 167.927,329.264L167.927,329.233C164.298,327.934 160.634,326.61 156.927,325.421C159.785,322.549 163.396,317.118 164.427,309.764L164.865,309.702C171.207,308.76 178.498,308.731 184.834,307.139C193.848,304.875 198.184,300.264 202.365,293.202C208.034,295.095 213.307,294.421 218.771,295.577C223.279,298.283 228.198,300.79 231.927,304.546C233.224,305.851 234.969,305.804 236.552,305.639C238.136,305.475 239.645,305.215 240.834,305.733C243.188,306.76 245.499,307.95 247.834,309.108L247.834,309.139C249.329,309.793 250.824,309.521 251.927,308.702C252.94,307.949 253.618,306.73 253.959,305.389C254.614,305.431 255.278,305.435 255.74,305.171C256.323,304.837 256.682,304.298 256.865,303.702C257.207,302.587 256.865,301.303 255.99,300.389C255.969,300.326 255.92,300.294 255.896,300.233C255.878,300.217 255.883,300.187 255.865,300.171C255.543,299.416 255.034,298.874 254.427,298.608C253.755,298.313 253.042,298.25 252.365,298.202C251.686,298.154 251.18,298.169 250.896,298.077C250.639,297.994 250.486,297.827 250.302,297.421C250.485,296.915 250.64,296.393 250.646,295.889C250.654,295.284 250.58,294.681 250.052,294.327L249.959,294.233L249.834,294.233C247.824,294.066 245.761,294.912 243.709,295.327C241.656,295.742 239.662,295.792 237.646,294.202C233.322,290.79 228.956,288.057 224.177,285.108C221.288,283.325 218.445,281.439 215.49,279.608C222.712,277.524 228.701,272.299 234.24,267.733L234.24,267.702L234.271,267.702C236.486,265.536 239.567,262.436 242.802,260.764C244.774,259.746 246.757,259.051 248.302,258.452C249.075,258.152 249.745,257.904 250.271,257.608C250.798,257.312 251.243,256.983 251.396,256.452L251.427,256.264L251.334,256.077C251.127,255.697 250.779,255.44 250.396,255.296C250.014,255.151 249.596,255.106 249.146,255.077C248.247,255.018 247.236,255.099 246.365,255.171C245.674,255.228 245.236,255.219 244.927,255.202C244.985,255.136 244.961,255.159 245.052,255.077C246.056,254.17 246.499,254.14 247.146,253.764C247.794,253.388 248.448,252.714 249.49,250.827L249.552,250.702L249.552,250.577C249.552,250.577 249.459,239.671 249.459,239.671L249.459,238.921L248.771,239.202C243.651,241.216 237.852,247.691 235.615,252.358L235.615,252.389C233.68,257.134 228.745,259.479 225.146,263.139C223.53,264.783 220.849,266.364 218.427,266.858C217.217,267.105 216.082,267.069 215.177,266.702C214.273,266.334 213.551,265.658 213.115,264.421C212.542,262.794 211.889,259.778 211.834,257.046C211.806,255.679 211.938,254.403 212.271,253.389C212.571,252.475 213.039,251.846 213.677,251.483C215.582,252.432 217.188,254.533 218.834,255.952C219.689,256.69 220.626,257.263 221.677,257.202C222.682,257.144 223.683,256.485 224.677,255.171C226.663,255.045 228.056,254.513 228.834,253.608C229.654,252.655 229.774,251.413 229.552,250.139C229.113,247.615 227.37,244.836 226.334,242.983C226.324,242.966 226.312,242.938 226.302,242.921C225.476,240.682 225.23,238.151 224.521,235.796C223.835,233.517 222.625,231.394 220.021,229.983C220.014,225.104 222.424,220.104 222.146,214.827L221.209,214.639C221.014,215.086 220.354,215.841 219.521,216.483C218.688,217.126 217.683,217.701 216.834,218.014C216.409,218.171 216.024,218.256 215.74,218.264C215.456,218.273 215.314,218.21 215.24,218.139C215.166,218.069 215.092,217.937 215.115,217.577C215.138,217.217 215.267,216.677 215.584,215.952L215.615,215.889L215.615,215.858C215.653,215.694 215.689,215.516 215.584,215.296C215.478,215.075 215.2,214.934 215.021,214.921C214.663,214.894 214.419,215.005 214.115,215.139C213.507,215.409 212.724,215.854 211.896,216.202C211.068,216.55 210.209,216.784 209.584,216.702C208.958,216.62 208.513,216.34 208.209,215.327L208.209,215.296L208.177,215.233C207.694,214.308 207.358,213.801 206.896,213.514C206.665,213.371 206.322,213.291 206.052,213.421C205.782,213.55 205.642,213.767 205.552,213.983C205.374,214.415 205.338,214.958 205.334,215.546C205.331,215.951 205.381,216.373 205.427,216.796C203.795,216.931 201.856,216.516 199.74,216.233C197.436,215.925 194.92,215.855 192.49,217.108L191.334,217.702L192.615,218.014C193.823,218.336 195.246,218.748 196.615,219.389C194.823,219.636 192.938,220.154 191.146,220.952C188.8,221.997 186.737,223.321 185.552,224.452L184.427,225.483L185.959,225.296C187.079,225.145 188.081,224.942 189.052,225.014C189.686,225.062 190.332,225.298 190.99,225.671C187.031,226.047 183.36,227.537 180.709,231.233L179.865,232.421L181.271,232.014C182.471,231.657 183.455,231.144 184.49,230.858C185.246,230.649 186.081,230.612 187.052,230.764C185.603,231.754 184.42,232.864 183.552,234.108C181.919,234.885 179.974,236.298 178.771,237.358L178.084,237.983L178.99,238.233C179.417,238.346 179.496,238.577 179.552,238.889C179.609,239.201 179.552,239.483 179.552,239.483C179.153,240.378 179.018,241.308 178.865,242.233C175.62,237.488 172.286,234.19 169.302,231.264C165.984,228.011 163.116,224.95 161.084,219.796C157.784,211.427 159.207,200.345 160.959,192.014L161.177,191.046L160.271,191.452C157.954,192.531 156.496,193.711 155.74,194.264C155.723,194.248 155.72,194.265 155.615,194.139C155.457,193.952 155.27,193.642 155.052,193.327C154.618,192.697 154.1,191.902 153.177,191.796L153.021,191.764L152.865,191.858C143.171,196.919 139.525,206.59 140.084,216.108C140.333,220.348 141.536,224.492 143.271,228.296C143.208,228.291 143.147,228.27 143.084,228.264C139.028,223.41 136.136,215.667 134.927,207.327C133.716,198.969 134.176,189.996 136.74,182.796L137.052,181.983Z" style="fill:none;stroke:rgb(255,232,134);stroke-width:1px;stroke-linecap:butt;stroke-linejoin:miter;"/>
    <path id="path2060" d="M184.965,411.197C175.956,411.197 167.683,414.319 161.121,419.51C162.208,420.423 163.307,421.359 164.34,422.26C164.532,422.427 164.784,422.643 164.996,422.822C170.577,418.667 177.478,416.197 184.965,416.197C192.478,416.197 199.438,418.673 205.028,422.854C205.252,422.665 205.514,422.436 205.715,422.26C206.732,421.373 207.803,420.439 208.871,419.541C202.304,414.33 193.994,411.197 184.965,411.197ZM154.778,425.854C149.587,432.415 146.465,440.688 146.465,449.697C146.465,458.711 149.583,467.01 154.778,473.572C155.672,472.509 156.583,471.428 157.465,470.416C157.646,470.209 157.865,469.929 158.059,469.697C153.91,464.12 151.465,457.178 151.465,449.697C151.465,442.226 153.919,435.334 158.059,429.76C157.865,429.529 157.646,429.248 157.465,429.041C156.577,428.023 155.677,426.922 154.778,425.854ZM215.215,425.885C214.317,426.954 213.383,428.024 212.496,429.041C212.312,429.252 212.07,429.523 211.871,429.76C216.012,435.334 218.465,442.225 218.465,449.697C218.465,457.169 216.012,464.092 211.871,469.666C212.076,469.911 212.297,470.187 212.496,470.416C213.326,471.368 214.227,472.463 215.153,473.604C220.364,467.036 223.465,458.726 223.465,449.697C223.465,440.704 220.39,432.441 215.215,425.885ZM204.996,476.572C199.413,480.738 192.462,483.197 184.965,483.197C177.493,483.197 170.602,480.744 165.028,476.604C164.808,476.788 164.537,476.994 164.34,477.166C163.307,478.067 162.208,479.003 161.121,479.916C167.683,485.107 175.956,488.197 184.965,488.197C193.994,488.197 202.304,485.096 208.871,479.885C207.803,478.987 206.732,478.053 205.715,477.166C205.509,476.986 205.229,476.765 204.996,476.572Z" style="fill:url(#_Radial1);stroke:rgb(255,232,134);stroke-width:1px;stroke-linecap:butt;stroke-miterlimit:2;"/>
    <path id="path2015" d="M131.264,481.809C113.657,496.027 109.756,518.556 121.41,538.301C124.136,534.478 128.079,531.931 132.358,530.2C117.343,513.229 125.607,494.464 138.927,480.714" style="fill:none;stroke:rgb(255,232,134);stroke-width:1.5px;"/>
    <path id="path2036" d="M220.597,240.645C220.414,240.645 218.001,238.839 217.435,238.274C216.359,237.197 214.56,237.22 214.01,237.22C214.493,238.419 216.684,240.422 218.225,241.435C219.038,241.842 220.108,241.011 220.597,240.645Z" style="fill:white;stroke:rgb(255,232,134);stroke-width:1px;stroke-linecap:butt;stroke-linejoin:miter;"/>
    <path id="path2038" d="M249.199,230.381L249.054,239.327" style="fill:none;stroke:rgb(255,232,134);stroke-width:1px;stroke-linecap:butt;stroke-linejoin:miter;"/>
    <path id="path2040" d="M249.158,250.505L249.179,255.268" style="fill:none;stroke:rgb(255,232,134);stroke-width:1px;stroke-linecap:butt;stroke-linejoin:miter;"/>
    <path id="path2042" d="M249.177,257.638L249.552,294.262M249.977,309.02L250.504,322.85C250.504,325.829 256.036,326.215 256.036,322.855L258.276,230.367M246.55,221.618C244.809,227.853 248.698,231.341 253.336,231.397C257.974,231.453 262.701,228.396 260.91,222.333" style="fill:none;stroke:rgb(255,232,134);stroke-width:1px;stroke-linecap:butt;stroke-linejoin:miter;"/>
    <path id="path2048" d="M263.282,221.674C261.26,223.103 255.95,222.878 252.668,222.821C248.78,222.754 245.159,220.858 241.693,219.332C237.879,219.259 236.072,217.739 235.31,213.991C237.013,213.085 239.463,212.558 238.731,209.452C231.801,210.497 223.09,209.733 217.331,210.014C218.876,206.961 224.698,207.847 224.056,204.167C230.323,203.839 236.958,205.095 242.756,201.744C239.026,199.665 231.451,199.018 226.737,199.612C215.804,200.989 206.01,205.644 194.878,205.536C189.308,205.482 185.997,202.479 180.502,201.025C182.249,200.648 184.665,199.89 185.794,197.77C181.779,196.038 176.7,198.236 173.236,195.149C188.998,186.436 203.569,203.687 219.337,193.079C216.872,191.619 212.677,191.466 209.603,190.958C208.436,190.797 207.259,190.72 206.06,190.821C202.482,190.549 198.881,190.65 195.309,190.497C199.769,184.586 208.868,184.127 215.332,186.494C218.888,188.166 222.33,188.375 221.279,183.057C227.832,186.941 238.798,199.875 246.092,191.943C250.041,190.863 254.588,192.534 256.515,195.946C258.511,199.48 262.542,197.71 265.515,199.413C272.06,206.135 271.149,216.113 263.282,221.674Z" style="fill:none;stroke:rgb(255,232,134);stroke-width:1px;stroke-linecap:butt;stroke-linejoin:miter;"/>
    <path id="path2054" d="M92.03,363.397L459.519,363.397" style="fill:none;stroke:rgb(255,232,134);stroke-width:1.5px;stroke-linecap:butt;"/>
    <path id="path2052" d="M275.079,585.485L275.079,164.467L274.699,164.467" style="fill:none;stroke:rgb(255,232,134);stroke-width:1.5px;stroke-linecap:butt;"/>
    <path id="path2047" d="M377.307,346.495C374.353,345.856 371.198,344.503 368.197,344.146C364.979,343.763 362.291,347.289 364.196,351.562M315.529,204.751C318.31,201.489 323.617,201.661 328.716,203.41M300.507,229.08C298.046,221.365 285.977,225.076 285.724,233.514C287.014,230.837 289.586,229.86 292.13,230.64M367.709,300.965C359.485,307.79 351.115,302.913 348.433,311.424C347.173,315.425 349.393,318.487 351.001,321.988C346.249,323.92 337.026,323.266 334.817,320.491C331.814,316.717 325.242,316.325 325.07,322.543M334.043,325.849C326.712,320.06 322.532,321.628 322.05,330.495C326.924,326.432 330.068,330.727 333.397,332.824C340.339,332.677 347.279,331.792 354.29,332.724C355.573,332.689 358.728,332.94 357.77,330.548C354.38,322.141 362.007,318.109 369.417,320.211M332.823,279.253C334.787,279.668 336.521,281.13 336.246,283.341C339.109,282.874 339.989,284.121 340.415,286.905C343.898,287.456 343.109,289.216 342.975,291.197C344.225,290.519 347.009,290.386 348.546,290.937M339.41,250.466C333.621,254.394 326.866,260.878 322.333,268.031C314.989,279.619 306.777,265.709 299.645,262.42C294.299,259.955 289.136,263.306 288.257,271.899C297.031,266.172 308.141,273.679 296.744,277.044C297.94,279.784 304.726,281.285 306.378,278.419C308.635,280.935 308.491,283.073 308.199,285.222C315.427,289.051 321.926,285.865 329.895,283.888C333.185,276.45 338.773,274.65 343.801,280.717C349.252,283.507 346.555,289.403 350.156,293.558C351.478,295.409 350.462,300.375 350.462,300.375C350.462,300.375 352.319,300.479 355.364,299.02C365.797,294.257 372.362,304.146 370.392,313.529C367.912,323.527 372.638,337.174 384.054,338.535C382.276,341.523 378.304,346.509 374.636,348.33C372.147,349.566 370.412,348.014 367.221,348.537C361.95,349.402 364.511,359.536 364.511,359.536C364.938,360.088 365.062,358.512 365.973,356.78C369.424,350.217 382.491,363.098 384.298,351.221C386.179,344.574 393.648,340.725 397.963,337.821C392.104,332.858 387.813,320.382 395.343,315.215C398.129,313.022 398.67,320.989 403.986,321.805C413.43,323.255 417.407,311.19 413.817,304.137C409.936,296.512 406.235,286.797 405.983,277.932C405.712,268.444 414.461,268.057 419.939,276.036C424.387,282.514 428.175,293.317 437.576,293.321C444.275,293.321 441.666,283.68 437.177,280.909C438.065,277.518 441.825,275.299 443.487,274.614C442.493,273.454 443.381,271.995 440.896,271.202C441.844,266.461 434.187,274.142 435.781,266.881C433.702,270.315 437.255,285.215 427.723,279.253C423.792,271.585 415.674,259.49 406.998,264.694C400.599,268.531 399.845,278.323 401.667,286.446C403.656,295.313 410.468,304.681 409.914,312.431C409.567,317.269 405.598,316.85 402.946,313.334C400.113,309.578 398.262,302.449 397.575,299.729C395.141,290.078 387.415,283.727 379.663,278.033C372.515,272.783 381.458,267.222 386.854,269.335C386.211,257.811 399.946,257.621 405.192,250.6C412.46,249.411 415.138,241.708 422.247,240.629C422.692,229.654 438.767,236.475 440.408,225.338C442.099,223.32 443.765,219.243 443.345,218.434C439.236,220.814 435.225,224.894 429.49,224.229C434.966,220.675 448.92,211.608 447.716,203.669C444.86,205.53 440.985,210.021 435.897,210.89C446.636,203.623 450.296,193.642 449.065,181.292C443.985,191.136 432.04,201.979 419.157,205.524M409.426,241.196C405.698,241.579 406.77,234.844 410.158,234.121C409.808,232.051 407.797,229.89 411.216,227.326C411.598,223.623 412.731,220.426 415.895,217.431C414.543,214.199 415.478,211.667 418.387,210.052C417.047,207.499 419.741,205.155 420.322,203.498C417.05,204.904 413.068,208.107 410.558,210.585C404.231,215.225 398.252,218.418 391.155,221.682C386.985,223.851 384.656,227.899 382.996,232.051C381.442,235.938 380.045,239.964 379.017,244.009C378.096,247.634 373.295,253.782 370.548,248.902C365.532,239.992 371.118,236.186 375.417,235.564C374.542,229.622 367.464,225.227 373.343,220.516C369.907,218.207 371.782,215.185 374.35,213.849C372.941,210.206 370.361,207.327 369.173,203.87C368.502,200.616 369.705,197.162 371.835,195.181C368.534,195.618 367.988,192.792 367.904,190.527C365.128,193.714 364.608,189.123 364.061,187.083C360.592,190.132 356.143,192.044 351.405,191.954C345.032,191.411 337.961,189.663 333.895,195.657C328.639,194.378 319.114,195.965 316.897,200.958C315.997,202.985 314.532,205.956 317.847,204.494C321.161,203.032 326.625,204.792 329.584,207.931C332.878,208.102 334.004,210.589 334.271,212.193C336.99,212.817 338.793,214.796 338.407,216.556C337.416,221.068 330.672,225.634 326.917,225.795C329.047,228.234 329.796,229.643 328.74,231.018C329.335,232.929 328.637,234.396 327.111,235.205C329.345,237.634 328.078,240.06 325.823,241.553C328.344,244.85 326.356,247.576 323.161,247.913C323.071,252.278 317.802,250.304 315.867,249.833C313.191,249.33 311.49,247.488 310.245,245.195C308.341,235.37 303.849,227.052 295.162,229.019C291.362,229.879 290.089,233.371 290.379,236.995C294.519,231.774 301.29,235.356 299.48,239.966C298.57,242.286 295.628,242.267 293.454,241.229C293.728,243.892 296.593,244.699 298.893,244.764C301.834,244.847 304.314,245.89 306.405,248.135C309.728,251.66 308.635,254.58 307.478,258.265C309.757,256.661 312.797,258.36 312.255,261.109C315.296,258.954 316.875,261.51 316.209,264.163C318.803,263.279 321.321,265.675 322.21,268.181M339.166,198.015C343.949,195.897 347.527,197.713 352.096,198.991C353.897,199.419 355.652,199.017 357.219,198.503M342.798,197.093C343.235,200.087 346.244,201.374 348.409,198.069M361.854,205.334C358.247,207.669 359.889,209.727 363.394,211.266C359.108,214.38 361.295,215.445 363.099,216.732C361.172,219.263 362.206,220.694 363.862,222.089C361.878,223.583 361.628,226.34 363.325,228.848C361.405,231.459 362.227,233.982 363.649,235.598C362.13,236.736 360.335,240.002 360.905,242.659M342.717,230.054C343.404,232.007 342.574,234.936 341.267,237.016C344.53,237.516 344.389,239.381 343.927,242.045C346.377,242.588 347.547,242.56 346.561,246.184C349.606,245.62 350.363,246.846 350.396,249.028C351.993,248.918 353.513,249.583 353.477,251.198M374.784,264.616C375.7,262.825 376.932,262.469 378.773,262.967C378.84,259.251 381.416,259.355 383.601,260.65C383.802,257.699 386.391,257.156 388.827,257.798C389.103,256.161 390.52,254.928 391.991,255.615L392.105,255.589M295.342,261.556C289.933,258.378 284.098,261.411 284.162,266.427C285.741,264.815 288.001,265.06 289.94,265.293M436.74,272.853C438.269,272.393 439.59,272.808 440.727,273.802" style="fill:none;stroke:rgb(255,232,134);stroke-width:1px;stroke-linecap:butt;stroke-linejoin:miter;"/>
    <path id="path2002" d="M130.109,236.619C135.139,234.604 139.071,235.194 143.305,236.614M136.18,226.417C138.681,227.729 141.17,228.706 143.921,228.79M160.914,244.068C158.729,239.29 153.388,233.065 149.844,228.522C142.196,218.718 143.509,200.984 153.239,192.289M176.735,264.256C177.903,252.013 168.285,240.72 160.315,232.633C149.791,221.953 150.016,204.314 155.717,194.763M167.973,266.203C165.455,266.976 163.156,267.457 160.792,269.237C161.536,267.845 161.733,266.487 162.415,265.063C160.388,263.564 156.757,265.278 154.114,265.486C155.906,263.395 157.603,261.263 159.427,258.803C156.787,258.103 149.189,257.955 146.058,257.636C148.011,256.149 149.451,254.718 149.85,251.836C148.242,250.685 145.827,251.702 143.225,249.438C142,248.372 142.924,246.955 143.819,246.108C144.681,245.293 146.983,243.527 146.983,243.527M93.207,320.699C96.593,318.597 98.935,318.947 102.021,316.747C103.662,315.578 104.09,312.897 102.424,312.261C108.513,310.333 114.087,306.667 118.345,302.427C122.03,298.759 123.395,293.412 127.499,290.039C132.685,285.776 139.415,284.516 145.89,284.066C151.864,283.65 158.206,281.983 162.254,277.065C164.88,273.875 163.658,270.604 159.092,270.515C155.119,273.46 151.531,276.243 147.214,277.924C147.188,276.205 146.565,274.94 145.079,274.413C142.473,277.71 139.398,279.26 137.145,281.131C137.442,279.543 137.421,277.089 137.173,275.761C134.927,277.458 131.297,280.937 128.894,282.266C128.942,280.914 129.69,279.767 129.486,278.439C128.096,279.88 124.739,281.46 123.012,282.265C123.233,279.934 124.587,279.531 124.198,277.467C121.436,278.701 118.042,280.728 112.606,281.832C114.401,280.197 116.555,278.071 118.177,275.871C114.391,277.363 109.479,278.672 105.49,278.82C106.84,277.374 109.582,275.172 111.506,273.126C107.604,272.682 104.803,272.808 101.253,271.175C104.76,270.434 108.46,267.829 108.4,267.949M125.467,270.34C115.197,272.341 105.945,267.812 100.988,261.603C106.705,262.352 113.302,262.136 118.531,260.034C109.008,257.7 103.006,248.188 103.658,234.351C107.801,243.502 115.191,250.622 124.659,251.223C113.681,246.958 108.325,237.054 109.36,220.419C111.493,222.027 113.61,222.341 113.61,222.341M152.769,269.297C144.835,271.903 137.876,270.32 129.862,267.173C134.103,264.893 139.451,264.074 144.185,263.568C137.234,264.481 129.323,261.258 122.842,257.245C127.344,255.454 131.373,255.464 136.259,254.599C120.719,243.936 114.198,229.03 111.686,211.529C114.673,212.663 117.137,212.942 117.137,212.942M125.287,244.081C127.391,243.071 134.666,245.052 135.817,242.927C120.703,228.478 111.331,209.466 120.438,191.617C122.184,191.994 123.975,193.575 123.975,193.575M136.46,235.296C126.57,226.196 122.098,209.951 123.676,195.925C124.003,193.025 126.019,189.045 129.483,188.005C131.503,184.847 133.979,183.055 136.389,182.558C131.188,197.167 134.509,218.605 142.835,228.53M129.53,188.011C128.045,205.863 130.882,222.346 142.53,236.277M157.097,249.868C153.464,246.734 146.932,243.812 142.868,240.381C141.259,239.181 137.576,235.209 141.934,237.612C144.847,239.303 152.026,242.794 152.824,239.35C139.011,229.968 134.206,202.132 153.224,192.204C154.456,192.346 155.166,194.738 155.908,194.736C156.65,194.207 158.202,192.94 160.591,191.827C158.833,200.19 157.355,211.33 160.727,219.882C164.861,230.367 172.557,232.513 179.65,243.839M214.537,279.378C222.038,277.55 228.238,272.036 234.035,267.257C236.246,265.095 239.362,261.976 242.703,260.249C246.721,258.173 250.673,257.436 251.02,256.229C249.945,254.257 242.156,257.034 244.838,254.61C246.951,252.7 247.104,254.214 249.154,250.5L249.075,239.58C244.184,241.504 238.359,247.969 236.192,252.489C234.169,257.451 229.135,259.823 225.626,263.391C222.237,266.838 214.673,269.898 212.772,264.502C211.58,261.116 210.113,252.396 213.784,250.789C218.168,252.72 220.512,260.14 224.502,254.63C232.868,254.305 228.068,246.806 225.981,243.064C224.227,238.387 225.038,232.828 219.607,230.149C219.51,225.019 222.052,219.951 221.779,214.764C220.716,217.199 212.593,221.712 215.239,215.653C215.641,213.908 209.231,219.968 207.856,215.388C205.987,211.811 205.722,214.935 206.08,217.197C202.361,217.777 197.439,215.088 192.846,217.456C194.428,217.877 196.575,218.255 198.395,219.578C194.254,219.523 188.217,222.597 186,224.713C188.195,224.418 190.195,223.842 192.509,225.926C188.116,226.046 184.1,227.448 181.236,231.442C183.519,230.761 185.156,229.362 188.416,230.404C184.959,232.395 183.066,235.075 182.314,238.135C186.267,236.115 190.888,234.049 195.418,234.739C190.898,238.794 185.259,241.098 180.957,245.485C182.986,244.568 189.803,242.339 193.959,242.433C190.284,244.989 183.448,252.023 182.151,253.975C184.461,252.246 187.306,251.019 189.979,250.128C187.283,252.334 184.644,259.4 184.407,260.609C185.673,258.088 188.228,256.796 190.642,255.567C191.229,258.693 188.743,262.903 187.723,266.181C189.552,263.784 192.145,262.199 194.224,260.078C194.757,262.263 194.205,265.416 194.622,265.916C195.736,264.514 197.531,262.701 198.602,261.272C198.998,260.481 198.602,263.926 198.602,263.926L200.592,262.466L201.123,264.456L203.378,262.864L205.501,265.65M204.281,269.872C207.006,274.118 210.625,277.011 215.251,279.872C218.231,281.716 221.091,283.629 224.022,285.438C228.799,288.387 233.169,291.116 237.466,294.507C241.763,297.897 246.231,294.34 249.896,294.646C250.435,295.007 250.368,296.419 249.909,297.455C250.401,298.661 251.12,298.536 252.433,298.628C253.77,298.722 255.119,298.891 255.641,300.457C257.371,302.004 256.883,305.476 253.711,304.879C253.163,307.642 250.856,309.766 248.164,308.59C245.835,307.435 243.524,306.235 241.149,305.2C238.397,304 234.69,306.392 232.411,304.098C228.578,300.238 223.564,297.714 219.054,295C212.73,293.646 206.863,294.918 200.459,291.939C194.054,288.959 194.94,290.976 192.93,289.654M202.416,292.289C198.145,299.658 193.987,304.266 184.833,306.566C178.584,308.136 171.287,308.17 164.893,309.12L155.089,310.733M158.94,304.146C156.743,309.491 152.932,314.153 147.873,317.019C146.033,318.317 142.235,320.703 142.756,322.623C151.467,323.479 159.69,326.702 167.866,329.629C170.778,330.376 171.909,333.377 173.349,335.696C175.359,338.935 178.322,342.617 177.43,346.449C177.035,348.144 175.296,352.179 173.971,351.511C172.293,348.362 168.328,346.384 166.906,344.275C166.946,343.769 167.041,342.421 167.817,341.55C170.502,338.533 165.147,336.458 163.126,334.867C160.247,332.602 156.496,333.04 153.09,332.547C149.646,332.048 146.056,332.348 142.604,332.716C137.405,333.271 131.819,333.622 127.164,333.641C123.758,333.655 121.088,333.294 123.206,328.807C125.939,323.02 125.76,316.701 125.432,310.444C123.118,308.304 120.032,313.501 119.112,315.758C116.404,322.405 110.538,327.275 104.406,330.802C101.631,332.399 96.72,333.98 93.637,334.727M136.544,293.606C132.449,297.355 131.332,301.357 131.274,307.308M164.21,308.889C163.333,316.727 159.354,322.467 156.445,325.287M138.652,333.13C138.652,333.13 139.542,336.011 140.788,338.334C141.382,339.438 143.153,340.893 144.36,340.587C151.275,338.944 157.557,337.449 167.636,338.136M170.554,331.022C176.011,331.036 177.98,331.237 183.437,331.287C184.889,331.375 188.496,331.492 189.856,332.041C191.24,332.702 192.684,334.864 193.508,336.026C195.04,337.905 195.659,338.481 194.115,340.673C191.85,342.176 188.824,342.57 186.689,342.148C185.838,341.351 185.406,340.702 184.944,339.663C184.589,338.48 182.671,337.785 181.759,337.019C179.382,337.06 176.983,337.317 174.627,337.69M183.876,234.473C182.322,235.213 180.401,236.626 179.233,237.657C180.478,237.986 180.161,239.515 180.161,239.515C179.614,240.703 179.378,241.937 179.233,243.229" style="fill:none;stroke:rgb(255,232,134);stroke-width:1px;"/>
    <path id="path3914" d="M381.238,489.924C380.957,491.197 380.479,492.421 380.163,493.686C385.839,490.742 384.492,497.989 386.076,497.181C389.41,496.181 390.182,498.367 390.108,501.212C393.416,499.516 395.086,500.545 397.902,503.631C401.189,502.076 404.255,500.602 407.847,501.75" style="fill:none;stroke:rgb(255,232,134);stroke-width:1px;stroke-linecap:butt;stroke-linejoin:miter;"/>
    <path id="path2429" d="M403.708,416.308C402.022,363.982 318.499,375.525 333.187,429.991" style="fill:none;stroke:rgb(255,232,134);stroke-width:1px;"/>
    <path id="path2427" d="M429.107,460.686C432.638,457.146 438.621,448.281 438.968,443.154C439.334,437.751 442.148,432.617 444.159,439.448C445.637,444.469 443.912,451.109 436.89,460.291" style="fill:none;stroke:rgb(255,232,134);stroke-width:1px;"/>
    <path id="path2425" d="M324.862,432.509C322.187,427.924 321.843,420.291 324.073,415.677C326.621,410.402 325.554,404.035 319.498,410.072C312.044,417.502 313.094,432.167 319.233,442.353C316.435,437.976 313.044,433.557 310.832,431.361C308.693,429.239 306.932,431.399 308.653,437.721C311.293,447.421 318.779,453.245 320.832,454.498C316.807,452.862 312.667,450.17 310.435,447.262C305.028,440.214 307.252,453.483 311.091,457.994C313.668,461.021 316.452,463.004 320.42,465.509C314.501,464.168 311.173,459.479 306.499,459.985" style="fill:none;stroke:rgb(255,232,134);stroke-width:1px;"/>
    <path id="path2423" d="M306.665,467.647C310.693,472.384 320.297,476.248 327.243,477.033C318.327,477.25 311.732,474.484 306.657,471.05" style="fill:none;stroke:rgb(255,232,134);stroke-width:1px;"/>
    <path id="path2421" d="M353.767,480.325C353.086,484.991 348.738,489.117 344.247,492.041C350.836,494.879 355.908,488.351 356.452,484.719C355.317,488.83 357.621,493.976 356.208,498.144C360.926,496.593 362.121,492.237 362.554,487.404C361.881,491.699 363.97,494.583 365.971,498.144C370.08,489.19 364.081,481.71 364.751,467.877" style="fill:none;stroke:rgb(255,232,134);stroke-width:1px;"/>
    <path id="path2419" d="M362.997,465.038C364.7,467.09 365.586,470.026 369.587,470.697C369.354,466.927 367.362,459.86 368.439,456.185" style="fill:none;stroke:rgb(255,232,134);stroke-width:1px;"/>
    <path id="path2417" d="M331.248,474.234C327.969,481.536 324.242,488.627 315.932,491.696C318.797,493.717 321.861,494.414 324.663,494.151C324.177,495.708 321.483,497.928 320.749,498.368C325.12,498.781 328.511,496.454 331.995,494.723C332.155,496.814 331.165,499.682 329.398,501.029C332.198,500.542 336.143,499.283 337.892,497.163C337.998,499.527 337.072,502.604 335.706,505.315C338.93,504.328 342.921,503.013 345.521,499.761C345.89,501.365 344.953,503.859 344.402,504.389C348.782,503.671 350.087,501.328 351.325,497.22C352.147,499.166 351.801,500.853 351.801,502.184C353.252,501.779 355.154,500.691 356.009,499.098C356.271,500.86 357.004,502.313 358.308,502.854C359.261,500.073 361.755,496.961 364.014,495.215" style="fill:none;stroke:rgb(255,232,134);stroke-width:1px;"/>
    <path id="path2415" d="M306.919,481.896C312.157,484.869 315.848,485.281 322.306,486.637C317.643,486.641 310.806,486.136 306.709,483.979" style="fill:none;stroke:rgb(255,232,134);stroke-width:1px;"/>
    <path id="path2413" d="M306.657,494.083C306.657,494.083 311.503,494.235 314.53,493.148C311.708,496.299 306.527,496.026 306.527,496.026" style="fill:none;stroke:rgb(255,232,134);stroke-width:1px;"/>
    <path id="path2411" d="M303.257,516.715C305.893,514.304 305.402,510.768 303.24,508.43" style="fill:none;stroke:rgb(255,232,134);stroke-width:1px;"/>
    <path id="path2409" d="M298.455,508.238C291.552,511.683 294.722,519.868 301.287,519.868" style="fill:none;stroke:rgb(255,232,134);stroke-width:1px;"/>
    <path id="path2407" d="M302.508,516.45C301.542,517.244 300.816,518.092 300.646,519.192C301.384,520.519 303.361,520.072 304.732,519.959C304.441,518.785 303.658,517.575 302.508,516.45Z" style="fill:none;stroke:rgb(255,232,134);stroke-width:1px;"/>
    <path id="path2405" d="M295.378,516.781C292.268,519.574 293.628,524.678 297.468,525.482C298.975,525.797 300.959,525.322 301.531,524.75" style="fill:none;stroke:rgb(255,232,134);stroke-width:1px;"/>
    <path id="path2403" d="M301.174,521.912C300.784,522.586 300.659,523.72 301.061,524.375C302.143,524.576 303.242,524.643 304.216,524.017C303.546,523.165 302.251,522.252 301.174,521.912Z" style="fill:none;stroke:rgb(255,232,134);stroke-width:1px;"/>
    <path id="path2401" d="M294.941,524.017C293.849,528.813 296.495,532.783 300.397,532.657C302.5,532.588 304.282,531.208 304.705,529.143" style="fill:none;stroke:rgb(255,232,134);stroke-width:1px;"/>
    <path id="path2399" d="M303.672,526.305C303.121,526.998 302.553,528.593 303.95,529.262C305.004,528.913 306.093,528.427 306.685,527.19C305.632,526.748 304.662,526.311 303.672,526.305Z" style="fill:none;stroke:rgb(255,232,134);stroke-width:1px;"/>
    <path id="path2397" d="M303.501,526.384C302.806,525.689 301.923,525.433 301.043,524.994" style="fill:none;stroke:rgb(255,232,134);stroke-width:1px;"/>
    <path id="path2395" d="M378.8,525.075C371.831,528.069 362.246,533.58 357.238,537.343C352.969,540.638 352.823,548.05 357.686,549.962" style="fill:none;stroke:rgb(255,232,134);stroke-width:1px;"/>
    <path id="path2393" d="M299.823,495.459C295.84,494.618 289.998,491.866 285.91,488.38C284.745,487.387 284.035,488.353 284.201,489.845C284.675,494.089 287.492,497.821 290.762,499.909" style="fill:none;stroke:rgb(255,232,134);stroke-width:1px;"/>
    <path id="path2391" d="M299.84,493.859C289.539,489.261 281.769,479.515 280.089,467.681C279.892,466.296 282.351,467.573 283.042,468.394C287.455,473.629 292.611,479.433 299.384,481.494" style="fill:none;stroke:rgb(255,232,134);stroke-width:1px;"/>
    <path id="path2389" d="M299.488,478.695C292.222,473.588 282.708,462.44 282.248,452.085C282.031,447.193 284.685,449.471 286.139,452.09C289.211,457.622 294.219,463.896 299.073,466.678" style="fill:none;stroke:rgb(255,232,134);stroke-width:1px;"/>
    <path id="path2387" d="M299.209,464.146C290.673,456.272 283.748,445.895 282.271,431.252C282.136,429.919 282.996,429.043 284.041,430.233C289.98,436.995 292.849,446.808 299.091,451.619" style="fill:none;stroke:rgb(255,232,134);stroke-width:1px;"/>
    <path id="path2385" d="M298.997,443.216C288.584,433.059 283.233,420.149 284.372,404.689C284.682,400.482 287.469,399.238 288.328,404.094C289.714,411.934 292.593,421.357 298.903,426.28" style="fill:none;stroke:rgb(255,232,134);stroke-width:1px;"/>
    <path id="path2383" d="M299.028,419.972C292.006,411.568 288.398,399.228 291.524,388.059C292.352,385.1 294.492,386.018 295.185,388.547C296.417,393.042 297.396,398.344 299.335,401.972" style="fill:none;stroke:rgb(255,232,134);stroke-width:1px;"/>
    <path id="path2381" d="M306.339,415.246C306.933,415.961 307.92,416.6 309.098,416.862C307.045,403.727 304.556,382.816 320.693,374.669C322.381,374.323 322.133,377.176 321.608,378.32C316.38,389.717 316.188,399.215 318.374,411.004" style="fill:none;stroke:rgb(255,232,134);stroke-width:1px;"/>
    <path id="path2377" d="M414.558,405.457C414.218,392.67 420.409,399.212 420.685,407.901" style="fill:none;stroke:rgb(255,232,134);stroke-width:1px;"/>
    <path id="path2375" d="M428.992,408.279C429.166,401.611 434.895,400.563 434.754,408.399" style="fill:none;stroke:rgb(255,232,134);stroke-width:1px;"/>
    <path id="path2365" d="M384.814,433.571C386.337,441.512 384.649,450.916 389.585,457.902" style="fill:none;stroke:rgb(255,232,134);stroke-width:1px;"/>
    <path id="path2363" d="M388.594,430.082C390.384,437.136 390.628,445.734 394.197,452.018" style="fill:none;stroke:rgb(255,232,134);stroke-width:1px;"/>
    <path id="path2361" d="M392.373,426.145C394.151,431.437 392.282,436.843 396.9,444.703" style="fill:none;stroke:rgb(255,232,134);stroke-width:1px;"/>
    <path id="path2359" d="M394.038,421.008C396.134,425.622 394.86,430.085 399.086,435.319" style="fill:none;stroke:rgb(255,232,134);stroke-width:1px;"/>
    <path id="path2357" d="M383.701,513.88C390.368,516.664 395.1,526.132 392.084,534.304C394.101,532.471 395.209,530.555 395.99,528.237C397.328,529.17 397.503,531.62 397.444,533.554C401.132,527.955 400.521,522.22 396.741,516.743" style="fill:none;stroke:rgb(255,232,134);stroke-width:1px;"/>
    <path id="path2355" d="M399.996,526.958C404.016,533.462 409.933,538.353 418.746,539.399C408.556,532.44 410.586,524.347 404.419,517.955C412.843,522.454 413.589,535.717 425.486,537.004C421.415,532.365 421.605,526.501 416.161,521.237C422.324,519.191 423.818,530.087 429.442,529.518" style="fill:none;stroke:rgb(255,232,134);stroke-width:1px;"/>
    <path id="path2353" d="M425.901,519.09C427.245,529.108 433.435,538.072 443.972,534.236C436.469,531.355 434.39,528.255 431.886,521.037C435.468,527.229 443.949,531.657 448.584,524.535C443.55,525.411 438.52,523.404 436.339,516.584C438.785,520.521 445.091,523.815 448.584,519.128C444.092,519.187 438.373,512.072 442.521,507.182" style="fill:none;stroke:rgb(255,232,134);stroke-width:1px;"/>
    <path id="path2351" d="M350.464,524.853C349.634,525.268 349.195,525.408 348.396,525.807" style="fill:none;stroke:rgb(255,232,134);stroke-width:1px;"/>
    <path id="path2349" d="M354.488,530.774C358.761,529.795 359.929,527.584 360.642,524.694" style="fill:none;stroke:rgb(255,232,134);stroke-width:1px;"/>
    <path id="path2347" d="M369.706,519.605C372.949,520.924 376.142,522.809 378.93,525.012C375.422,528.687 376.191,535.456 380.875,534.689" style="fill:none;stroke:rgb(255,232,134);stroke-width:1px;"/>
    <path id="path2345" d="M376.807,531.318C376.807,531.318 380.473,533.493 382.016,534.289C376.665,538.999 364.237,546.746 357.714,550.013C354.15,551.06 349.232,547.855 349.232,547.855C347.452,546.581 344.682,546.569 343.786,544.132L335.842,537.807C333.88,536.674 330.99,536.548 329.893,534.229L324.979,529.639C323.379,527.185 324.963,522.931 326.907,521.134C331.335,518.838 336.911,517.659 341.604,515.819" style="fill:none;stroke:rgb(255,232,134);stroke-width:1px;"/>
    <path id="path2343" d="M329.831,534.158C329.436,531.131 329.275,528.017 331.461,525.45C333.359,524.291 335.661,525.893 336.111,528.035C333.863,531.404 333.824,535.108 335.038,537.417" style="fill:none;stroke:rgb(255,232,134);stroke-width:1px;"/>
    <path id="path2341" d="M343.753,544.145C341.659,540.743 340.813,537.464 344.421,533.046C346.387,532.154 348.896,533.819 349.397,535.881C346.97,540.124 346.281,543.052 348.517,547.236" style="fill:none;stroke:rgb(255,232,134);stroke-width:1px;"/>
    <path id="path2339" d="M308.321,511.654C305.757,513.645 305.331,516.15 306.594,519.105" style="fill:none;stroke:rgb(255,232,134);stroke-width:1px;"/>
    <path id="path2337" d="M308.321,518.015C306.729,518.982 305.598,520.463 304.539,521.945C307.093,523.07 309.513,521.924 310.866,519.605C310.462,518.767 309.633,518.473 308.321,518.015Z" style="fill:none;stroke:rgb(255,232,134);stroke-width:1px;"/>
    <path id="path2335" d="M310.23,520.56C311.873,520.607 314.203,520.022 315.478,517.856C317.674,516.116 318.141,513.702 319.294,511.813" style="fill:none;stroke:rgb(255,232,134);stroke-width:1px;"/>
    <path id="path2333" d="M308.583,530.329C311.195,528.994 313.459,526.662 314.842,523.74C319.269,523.358 321.807,519.692 325.019,517.22C331.983,514.537 336.911,509.722 340.763,503.544" style="fill:none;stroke:rgb(255,232,134);stroke-width:1px;"/>
    <path id="path2331" d="M315.501,505.406C317.865,502.825 321.661,501.354 325.337,497.819" style="fill:none;stroke:rgb(255,232,134);stroke-width:1px;"/>
    <path id="path2329" d="M289.906,499.648C294.024,502.136 299.32,500.903 303.203,500.903C307.169,500.945 311.878,501.702 315.976,499.662C316.838,500.771 315.516,502.756 315.494,504.445C315.47,506.282 316.401,508.422 315.819,509.355C311.31,507.394 307.938,508.287 303.433,508.287C299.255,508.287 294.537,507.161 290.303,509.616C289.413,508.08 290.649,506.202 290.604,504.446C290.559,502.689 289.437,501.692 289.906,499.648Z" style="fill:none;stroke:rgb(255,232,134);stroke-width:1px;"/>
    <path id="path2327" d="M306.413,500.585C306.413,500.585 307.073,426.562 305.672,389.578C305.091,386.414 304.355,380.708 302.471,378.698C300.402,380.714 300.062,386.317 299.548,389.768C298.524,426.755 299.903,500.737 299.903,500.737" style="fill:none;stroke:rgb(255,232,134);stroke-width:1px;"/>
    <path id="path2325" d="M302.752,427.846L303.24,501.073" style="fill:none;stroke:rgb(255,232,134);stroke-width:1px;"/>
    <path id="path2323" d="M300.311,533.049L300.17,538.697C302.881,540.054 306.008,540.149 308.541,538.453L308.122,522.375" style="fill:none;stroke:rgb(255,232,134);stroke-width:1px;"/>
    <path id="path2321" d="M307.143,512.59L307.011,508.237" style="fill:none;stroke:rgb(255,232,134);stroke-width:1px;"/>
    <path id="path2319" d="M369.229,501.953C365.992,504.852 362.083,509.404 359.369,513.562C359.369,513.562 355.937,512.976 351.405,512.976C349.186,512.976 343.858,513.691 342.299,514.913C340.458,517.261 338.321,518.849 338.219,521.991" style="fill:none;stroke:rgb(255,232,134);stroke-width:1px;"/>
    <path id="path2317" d="M340.016,520.266C338.711,521.56 336.868,523.368 337.766,524.988C339.991,524.947 341.706,524.304 342.867,523.08C342.737,521.58 341.397,520.729 340.016,520.266Z" style="fill:none;stroke:rgb(255,232,134);stroke-width:1px;"/>
    <path id="path2315" d="M352.054,518.174C348.246,517.991 342.904,521.543 344.275,523.618" style="fill:none;stroke:rgb(255,232,134);stroke-width:1px;"/>
    <path id="path2313" d="M354.443,521.068C351.61,522.159 349.83,525.476 350.133,528.095" style="fill:none;stroke:rgb(255,232,134);stroke-width:1px;"/>
    <path id="path2311" d="M350.39,528.069C351.88,527.573 353.777,527.819 354.44,529.942C353.71,531.483 351.742,531.787 350.146,532.328C350.101,531.297 349.943,529.202 350.39,528.069Z" style="fill:none;stroke:rgb(255,232,134);stroke-width:1px;"/>
    <path id="path2309" d="M360.165,526.921C363.779,525.326 367.011,524.998 369.388,519.923C374.171,514.906 378.872,511.658 381.951,506.565" style="fill:none;stroke:rgb(255,232,134);stroke-width:1px;"/>
    <path id="path2307" d="M344.72,523.282C346.355,523.282 347.846,523.957 348.542,525.634C348.024,527.968 345.792,528.688 344.132,529.162C343.519,526.367 343.316,524.499 344.72,523.282Z" style="fill:none;stroke:rgb(255,232,134);stroke-width:1px;"/>
    <path id="path2305" d="M358.549,456.339C358.549,456.339 358.454,458.178 356.146,461.063C356.905,461.322 357.71,461.216 358.424,461.063C357.473,464.187 355.151,466.65 352.409,468.262C355.418,468.909 358.485,467.68 360.976,466.257" style="fill:none;stroke:rgb(255,232,134);stroke-width:1px;"/>
    <path id="path2303" d="M358.789,467.533C358.04,471.795 355.764,476.412 351.133,480.201C356.855,480.486 358.713,477.242 360.885,473.548" style="fill:none;stroke:rgb(255,232,134);stroke-width:1px;"/>
    <path id="path2301" d="M337.504,507.891C340.427,507.156 343.308,507.699 341.385,511.69C344.577,510.323 347.554,509.77 347.834,513.295" style="fill:none;stroke:rgb(255,232,134);stroke-width:1px;"/>
    <path id="path2299" d="M347.834,503.123C350.971,503.009 352.638,504.289 351.671,508.068C353.936,506.699 356.047,506.644 357.417,508.635C359.336,506.897 361.183,507.608 362.932,508.845" style="fill:none;stroke:rgb(255,232,134);stroke-width:1px;"/>
    <path id="path2297" d="M371.514,517.745C375.292,515.368 379.478,515.884 380.732,519.652C383.377,517.994 386.145,517.243 389.155,517.745" style="fill:none;stroke:rgb(255,232,134);stroke-width:1px;"/>
    <path id="path2295" d="M339.845,422.569C336.104,431.094 332.143,431.387 325.921,431.273C323.02,434.038 325.164,437.754 328.926,437.765" style="fill:none;stroke:rgb(255,232,134);stroke-width:1px;"/>
    <path id="path2293" d="M341.309,426.263C338.019,433.346 332.856,437.217 326.465,438.264C322.734,442.948 326.876,446.069 331.596,444.1" style="fill:none;stroke:rgb(255,232,134);stroke-width:1px;"/>
    <path id="path2291" d="M342.405,430.691C339.811,438.588 333.654,444.59 327.158,445.371C321.533,448.445 326.667,453.878 331.403,451.386" style="fill:none;stroke:rgb(255,232,134);stroke-width:1px;"/>
    <path id="path2289" d="M343.9,434.449C336.419,448.167 338.087,449.84 324.681,453.862C320.923,457.001 324.814,461.072 328.926,459.876" style="fill:none;stroke:rgb(255,232,134);stroke-width:1px;"/>
    <path id="path2287" d="M346.616,439.18C338.121,447.106 338.781,457.503 326.273,460.761C321.912,464.733 329.725,470.746 333.187,465.729" style="fill:none;stroke:rgb(255,232,134);stroke-width:1px;"/>
    <path id="path2285" d="M345.377,445.371C336.49,454.692 340.787,459.77 329.175,469.655C325.574,472.715 331.003,476.231 334.233,472.259" style="fill:none;stroke:rgb(255,232,134);stroke-width:1px;"/>
    <path id="path2283" d="M346.439,453.331C338.035,465.724 342.39,468.782 333.426,476.161C331.127,478.054 337.848,480.496 339.717,478.627" style="fill:none;stroke:rgb(255,232,134);stroke-width:1px;"/>
    <path id="path2281" d="M347.677,458.107C342.477,468.36 345.256,474.585 338.479,479.688C335.995,481.558 337.586,483.172 339.54,482.872" style="fill:none;stroke:rgb(255,232,134);stroke-width:1px;"/>
    <path id="path2279" d="M350.33,461.115C346.837,466.562 349.93,473.288 339.363,482.872C337.189,484.258 338.398,485.724 340.247,486.587C342.604,487.687 344.737,486.541 346.616,484.995C350.662,481.666 350.977,474.397 352.099,469.429C352.22,468.946 352.193,468.961 352.276,468.544" style="fill:none;stroke:rgb(255,232,134);stroke-width:1px;"/>
    <path id="path2275" d="M358.159,424.805C358.368,420.537 355.82,418.88 351.967,420.807" style="fill:none;stroke:rgb(255,232,134);stroke-width:1px;"/>
    <path id="path2273" d="M373.251,426.611C373.083,421.783 377.563,421.73 380.99,423.644" style="fill:none;stroke:rgb(255,232,134);stroke-width:1px;"/>
    <path id="path2271" d="M373.767,424.418C375.916,425.325 377.158,424.394 378.444,422.705" style="fill:none;stroke:rgb(255,232,134);stroke-width:1px;"/>
    <path id="path2269" d="M353.773,420.162C354.26,422.274 355.538,423.191 357.772,422.483" style="fill:none;stroke:rgb(255,232,134);stroke-width:1px;"/>
    <path id="path2267" d="M356.998,438.091C357.918,438.052 358.132,439.387 359.055,439.3C359.652,439.015 360.35,438.971 360.844,439.502C361.4,440.067 362.257,440.066 362.984,440.23C363.847,440.344 364.673,439.974 365.537,440.029C366.426,439.994 367.308,440.154 368.193,440.192C368.707,440.313 369.122,441.194 369.66,440.58C370.195,440.252 370.627,439.322 371.366,439.729C372.13,440.109 371.19,440.913 370.689,441.03C369.171,442.193 367.094,442.35 365.549,443.345C364.116,444.267 363.988,446.273 363.498,447.861C363.493,445.981 363.021,444.084 361.805,442.763C360.62,441.476 358.659,441.101 357.235,439.979C356.944,439.495 356.039,439.014 356.469,438.373C356.603,438.217 356.801,438.131 356.998,438.091Z" style="fill:none;stroke:rgb(255,232,134);stroke-width:1px;"/>
    <path id="path2265" d="M363.636,447.953C363.748,448.464 365.148,449.645 365.855,450.084C367.984,451.408 370.89,451.995 372.822,450.537C374.755,449.078 374.599,446.256 375.444,444.025C376.277,441.824 377.673,439.983 379.557,438.561C382.353,436.45 383.355,432.953 384.602,429.836" style="fill:none;stroke:rgb(255,232,134);stroke-width:1px;"/>
    <path id="path2263" d="M351.194,414.228C349.233,416.398 347.632,419.071 347.33,421.987C347.04,424.779 347.897,427.513 348.311,430.265C348.808,433.569 350.903,436.148 352.45,438.918C353.879,441.477 353.249,444.215 353.428,446.979C353.524,448.46 354.142,449.113 355.321,449.7C356.158,450.116 357.417,450.498 358.546,450.216C359.447,449.991 360.368,449.757 360.997,449.442C361.828,449.027 363.078,448.48 363.33,447.695" style="fill:none;stroke:rgb(255,232,134);stroke-width:1px;"/>
    <path id="path2261" d="M389.761,401.587C390.332,401.151 390.857,400.585 391.505,400.294C393.274,400.056 394.685,400.77 396.078,401.757C396.872,402.319 396.879,403.543 397.311,404.378C397.697,405.124 397.762,405.898 397.746,406.698C397.721,407.874 397.131,408.917 396.637,409.923C395.653,412.028 393.996,413.193 393.502,415.518C392.753,418.841 390.113,419.215 387.113,418.734" style="fill:none;stroke:rgb(255,232,134);stroke-width:1px;"/>
    <path id="path2259" d="M344.744,401.071C342.45,399.568 339.969,399.629 338.776,401.891C336.996,405.265 340.216,409.481 341.838,412.798" style="fill:none;stroke:rgb(255,232,134);stroke-width:1px;"/>
    <path id="path2257" d="M342.938,412.422C339.48,414.24 338.813,417.161 337.417,420.461C336.594,422.077 335.461,423.474 335.172,425.285C335.062,425.974 336.434,427.639 336.434,427.639" style="fill:none;stroke:rgb(255,232,134);stroke-width:1px;"/>
    <path id="path2255" d="M344.099,400.626C343.72,398.963 344.251,397.202 346.061,396.822C350.374,395.916 356.435,400.321 356.435,405.058C356.435,408.333 354.37,410.26 351.676,411.603" style="fill:none;stroke:rgb(255,232,134);stroke-width:1px;"/>
    <path id="path2253" d="M349.259,396.943C350.351,394.544 354.996,392.208 358.613,393.456C364.231,395.396 365.762,401.754 361.513,405.844" style="fill:none;stroke:rgb(255,232,134);stroke-width:1px;"/>
    <path id="path2251" d="M358.83,393.328C364.415,390.456 370.271,395.621 367.962,402.49" style="fill:none;stroke:rgb(255,232,134);stroke-width:1px;"/>
    <path id="path2249" d="M367.302,395.34C369.945,391.366 374.109,390.787 378.064,393.173" style="fill:none;stroke:rgb(255,232,134);stroke-width:1px;"/>
    <path id="path2247" d="M373.122,405.328C373.567,402.024 374.866,397.415 377.253,394.545C380.157,391.052 384.427,392.819 385.056,395.416" style="fill:none;stroke:rgb(255,232,134);stroke-width:1px;"/>
    <path id="path2245" d="M378.78,407.986C379.668,403.744 381.512,398.595 384.669,395.889C386.821,394.045 390.989,395.663 392.212,400.039" style="fill:none;stroke:rgb(255,232,134);stroke-width:1px;"/>
    <path id="path2243" d="M386.15,401.716C389.822,400.555 392.849,402.643 391.632,407.015C391.089,408.081 389.492,408.487 388.619,409.431C388.18,411.959 385.88,412.54 383.699,413.325" style="fill:none;stroke:rgb(255,232,134);stroke-width:1px;"/>
    <path id="path2241" d="M393.768,415.766C397.423,418.346 395.884,422.619 399.565,426.869" style="fill:none;stroke:rgb(255,232,134);stroke-width:1px;"/>
    <path id="path2239" d="M354.394,449.362C354.108,451.702 354.551,453.348 356.358,454.999C357.428,455.977 359.216,456.545 360.528,455.857C362.466,454.841 363.377,455.786 365.057,456.482C366.903,457.247 368.423,456.277 369.811,455.112C370.811,454.274 371.349,451.175 371.349,451.175" style="fill:none;stroke:rgb(255,232,134);stroke-width:1px;"/>
    <path id="path2237" d="M346.201,449.427C337.313,458.747 341.567,467.637 333.083,473.113C330.087,475.046 332.025,477.998 335.057,474.622" style="fill:none;stroke:rgb(255,232,134);stroke-width:1px;"/>
    <path id="path2235" d="M424.921,443.452C434.334,421.162 438.111,402.593 432.104,390.183C429.479,384.761 430.916,376.421 435.271,383.719C446.621,402.741 441.831,433.421 428.695,455.325" style="fill:none;stroke:rgb(255,232,134);stroke-width:1px;"/>
    <path id="path2233" d="M406.601,431.663C414.606,413.78 418.963,400.656 408.385,379.352C406.159,374.868 400.232,374.094 403.055,382.382C410.229,403.448 402.979,418.646 402.147,420.571" style="fill:none;stroke:rgb(255,232,134);stroke-width:1px;"/>
    <path id="path2231" d="M423.128,431.483C427.937,417.151 435.077,400.31 419.68,377.456C416.424,372.624 414.114,377.504 416.418,382.357C423.116,396.466 421.727,412.999 416.251,427.734" style="fill:none;stroke:rgb(255,232,134);stroke-width:1px;"/>
    <path id="path2229" d="M420.416,457.816C426.016,454.169 425.305,462.722 421.782,467.202C418.259,471.683 413.515,476.147 412.179,481.363C418.698,477.005 426.152,474.943 438.029,458.752C440.124,455.897 442.338,459.756 441.203,463.992C438.223,475.115 426.011,483.198 417.172,484.838" style="fill:none;stroke:rgb(255,232,134);stroke-width:1px;"/>
    <path id="path2227" d="M414.235,453.588C416.956,450.251 419.136,443.205 420.024,435.908C420.544,431.63 423.935,429.666 424.57,433.397C426.317,443.662 423.707,454.366 415.968,464.193C412.907,468.079 406.621,474.283 405.039,479.582" style="fill:none;stroke:rgb(255,232,134);stroke-width:1px;"/>
    <path id="path2225" d="M441.41,460.364C441.446,456.855 444.704,452.756 446.721,455.135C449.071,457.907 448.956,464.887 447.153,469.034C442.44,479.876 432.456,490.605 418.917,494.162C433.749,493.117 439.839,485.993 443.056,480.069C446.204,474.271 450.895,472.535 450.895,478.876C450.895,488.249 443.719,494.14 435.587,498.249C441.304,497.715 446.031,504.256 448.141,509.057C442.257,508.799 440.314,503.108 436.657,504.975C437.899,506.588 438.459,510.771 437.507,510.864C436.682,509.405 433.27,506.976 432.026,507.25C431.418,509.951 433.964,511.924 432.194,514.978C430.761,515.192 429.89,513.642 429.256,512.825C428.45,513.851 427.845,515.039 426.986,515.996C425.518,513.954 425.511,510.563 423.294,508.785C421.724,510.733 422.734,513.205 421.024,515.309C418.841,512.674 417.176,508.584 411.902,508.416C413.699,509.879 413.889,513.921 412.816,515.468C410.735,514.911 406.954,512.577 406.954,512.577C406.954,512.577 405.54,513.866 404.223,514.715C403.35,510.068 397.579,509.112 394.122,508.596C388.176,507.71 384.596,512.708 380.941,516.729C379.477,512.338 382.611,508.587 381.792,506.26C379.546,506.697 377.879,508.167 374.833,507.825C375.268,506.239 377.027,505.612 377.224,502.799C374.867,502.54 374.942,503.955 372.054,504.656C372.414,503.25 372.514,501.986 371.637,500.816C369.523,502.24 361.824,504.817 360.93,503.846C364.756,501.044 369.766,497.015 371.797,494.465C373.291,493.756 374.219,491.52 374.561,489.943C376.268,488.355 377.838,486.151 378.509,483.825C380.922,479.599 380.836,474.948 381.005,470.284C382.19,469.014 384.009,466.347 384.533,464.481C386.811,463.045 388.729,460.598 389.995,458.159C391.925,456.674 393.855,454.17 394.199,451.712C396.769,446.798 399.834,435.381 399.684,426.419C399.632,423.352 401.158,417.699 403.889,422.667C409.929,433.655 401.36,455.47 398.538,460.48C402.769,456.272 410.137,445.038 411.71,438.126C412.762,433.501 412.021,430.19 413.612,428.754C420.004,422.98 420.096,442.636 415.11,452.107C410.071,461.682 406.544,462.68 396.784,473.427" style="fill:none;stroke:rgb(255,232,134);stroke-width:1px;"/>
    <path id="path2223" d="M400.208,469.753C404.961,465.589 407.726,469.644 407.122,474.898C412.69,473.243 411.931,478.668 412.151,481.55C414.971,481.153 414.143,483.685 413.902,485.451C419.851,482.629 417.921,490.015 415.323,492.908" style="fill:none;stroke:rgb(255,232,134);stroke-width:1px;"/>
    <path id="path2221" d="M445.979,471.426C448.553,470.231 450.297,472.507 448.804,474.88" style="fill:none;stroke:rgb(255,232,134);stroke-width:1px;"/>
    <path id="path2051" d="M434.452,443.739C437.557,441.127 438.648,445.012 437.724,447.799" style="fill:none;stroke:rgb(255,232,134);stroke-width:1px;"/>
    <path id="path1939" d="M397.426,408.782C400.819,409.641 398.29,420.379 400.424,421.973" style="fill:none;stroke:rgb(255,232,134);stroke-width:1px;stroke-linecap:butt;stroke-linejoin:miter;"/>
    <path id="path2432" d="M194.485,459.165C200.596,453.055 207.407,464.571 212.49,470.403C217.574,476.234 224.338,486.821 234.271,487.471C242.387,488.002 253.371,483.634 254.373,474.525C255.385,465.335 250.129,456.706 250.129,449.713C250.129,442.72 255.385,434.091 254.373,424.901C253.371,415.792 242.387,412.3 234.271,412.832C224.338,413.482 218.435,422.204 212.49,429.024C208.268,433.867 200.156,445.917 194.485,440.245C188.814,434.574 200.863,426.462 205.707,422.24C212.526,416.295 221.248,410.393 221.899,400.46C222.43,392.344 218.938,381.359 209.829,380.357C200.639,379.346 192.01,384.602 185.017,384.602C178.024,384.602 169.395,379.346 160.205,380.357C151.096,381.359 147.604,392.344 148.135,400.46C148.785,410.393 157.508,416.295 164.327,422.24C169.171,426.462 181.216,434.578 175.497,440.245C169.769,445.921 161.663,433.866 157.44,429.024C151.469,422.179 145.554,413.465 135.559,412.823C127.246,412.289 115.895,416.241 115.478,425.755C115.087,434.682 119.781,442.991 119.801,449.713C119.822,456.707 114.545,465.335 115.557,474.525C116.559,483.634 127.543,487.126 135.659,486.595C145.592,485.945 151.495,477.223 157.44,470.403C161.662,465.56 169.768,453.504 175.497,459.165C181.214,464.815 169.171,472.933 164.327,477.155C157.508,483.1 148.785,489.002 148.135,498.935C147.604,507.051 151.096,518.036 160.205,519.038C169.395,520.049 178.024,514.793 185.017,514.793C192.01,514.793 200.639,520.049 209.829,519.038C218.938,518.036 222.43,507.051 221.899,498.935C221.248,489.002 212.526,483.1 205.707,477.155C200.863,472.933 188.374,465.276 194.485,459.165Z" style="fill:none;stroke:rgb(255,232,134);stroke-width:1.5px;"/>
    <path id="path3410" d="M306.672,426.259L309.129,429.023L306.749,428.639L306.672,426.259Z" style="fill:none;stroke:rgb(255,232,134);stroke-width:1px;"/>
    <path id="path4381" d="M342.862,523.08C343.343,523.15 343.633,522.895 343.956,522.696" style="fill:none;stroke:rgb(255,232,134);stroke-width:0.97px;"/>
    <path id="path4386" d="M384.963,434.08C385.251,440.998 385.283,448.477 387.095,455.205C388.614,460.847 391.284,465.818 393.8,469.247C395.992,472.235 394.388,478.841 390.729,475.235C388.821,473.354 387.275,472.365 384.402,465.478C382.06,459.866 380.428,454.771 380.569,448.526" style="fill:none;stroke:rgb(255,232,134);stroke-width:1px;"/>
    <path id="path2369" d="M382.046,443.139C382.334,450.056 381.445,457.382 384.178,464.264C386.334,469.694 387.906,471.959 390.422,475.388C392.614,478.376 391.011,484.982 387.352,481.376C385.443,479.495 383.591,477.124 380.717,470.238C378.376,464.625 377.358,459.376 377.499,453.132" style="fill:none;stroke:rgb(255,232,134);stroke-width:1px;"/>
    <path id="path3084" d="M275,593.685C275,593.685 281.22,572.526 311.923,569.685C342.032,566.898 397.144,560.071 423.486,557.685C450.422,555.244 464.298,546.707 464.298,523.497C464.298,455.471 464.741,286.201 464.741,201.003C464.741,175.49 464.716,159.403 464.716,159.403L85.284,159.556C85.284,159.556 85.259,175.49 85.259,201.003C85.259,286.201 85.702,455.471 85.702,523.497C85.702,546.707 99.578,555.244 126.514,557.685C152.855,560.071 207.968,566.898 238.077,569.685C268.78,572.526 275,593.685 275,593.685ZM275,585.887C275,585.887 280.919,568.593 310.139,565.868C338.792,563.196 391.241,556.648 416.309,554.359C441.943,552.018 459.149,549.578 459.149,523.569C459.149,458.324 459.57,287.056 459.57,205.34C459.57,180.87 459.495,164.36 459.495,164.36L90.505,164.36C90.505,164.36 90.43,180.87 90.43,205.34C90.43,287.056 90.851,458.324 90.851,523.569C90.851,549.512 108.057,552.018 133.691,554.359C158.759,556.648 211.208,563.196 239.861,565.868C269.081,568.593 275,585.887 275,585.887Z" style="fill:rgb(255,232,134);"/>
    <path id="path4388" d="M377.27,452.909C377.557,459.826 378.405,465.633 381.138,472.514C383.294,477.944 384.649,479.667 387.165,483.096C389.357,486.084 388.443,491.821 384.095,489.084C381.969,487.746 379.791,485.483 376.918,478.597C374.576,472.985 373.449,467.301 373.59,461.057" style="fill:none;stroke:rgb(255,232,134);stroke-width:1px;"/>
    <path id="path4390" d="M373.564,463.549C373.851,469.88 374.775,474.325 377.379,480.619C379.434,485.585 380.721,487.16 383.113,490.293C385.197,493.024 384.359,498.18 380.214,495.781C378.185,494.606 375.476,491.734 373.065,486.739C370.632,481.699 369.537,477.383 369.659,471.666" style="fill:none;stroke:rgb(255,232,134);stroke-width:1px;"/>
    <defs>
        <radialGradient id="_Radial1" cx="0" cy="0" r="1" gradientUnits="userSpaceOnUse" gradientTransform="matrix(38.5,0,0,38.5,184.965,449.697)"><stop offset="0" style="stop-color:rgb(255,222,166);stop-opacity:1"/><stop offset="1" style="stop-color:rgb(255,222,166);stop-opacity:0"/></radialGradient>
    </defs>
</svg>
