<?xml version="1.0" encoding="UTF-8" standalone="no"?>
<!DOCTYPE svg PUBLIC "-//W3C//DTD SVG 1.1//EN" "http://www.w3.org/Graphics/SVG/1.1/DTD/svg11.dtd">
<svg width="100%" height="100%" viewBox="0 0 1920 1080" version="1.1" xmlns="http://www.w3.org/2000/svg" xmlns:xlink="http://www.w3.org/1999/xlink" xml:space="preserve" xmlns:serif="http://www.serif.com/" style="fill-rule:evenodd;clip-rule:evenodd;stroke-linejoin:round;stroke-miterlimit:2;">
    <g transform="matrix(1,0,0,1,-27.6034,-331.31)">
        <path d="M509.891,608.988L1111.33,608.988C1120.15,608.988 1125.44,608.988 1128.97,610.461C1134.05,612.312 1138.06,616.317 1139.91,621.402C1141.38,624.929 1141.38,630.22 1141.38,639.037L1141.38,709.986C1141.38,718.804 1141.38,724.095 1139.91,727.622C1138.06,732.707 1134.05,736.712 1128.97,738.563C1125.44,740.035 1120.15,740.035 1111.33,740.035L509.891,740.035C501.073,740.035 495.782,740.035 492.255,738.563C487.17,736.712 483.165,732.707 481.314,727.622C479.842,724.095 479.842,718.804 479.842,709.986L479.842,639.037C479.842,630.22 479.842,624.929 481.314,621.402C483.165,616.317 487.17,612.312 492.255,610.461C495.782,608.988 501.073,608.988 509.891,608.988Z" style="fill:rgb(31,69,113);fill-opacity:0.17;fill-rule:nonzero;"/>
    </g>
    <g transform="matrix(1,0,0,1,-28.6034,-331.31)">
        <path d="M1181.89,608.988L1625.07,608.988C1633.88,608.988 1639.17,608.988 1642.7,610.461C1647.79,612.312 1651.79,616.317 1653.64,621.402C1655.12,624.929 1655.12,630.22 1655.12,639.037L1655.12,709.986C1655.12,718.804 1655.12,724.095 1653.64,727.622C1651.79,732.707 1647.79,736.712 1642.7,738.563C1639.17,740.035 1633.88,740.035 1625.07,740.035L1181.89,740.035C1173.07,740.035 1167.78,740.035 1164.26,738.563C1159.17,736.712 1155.16,732.707 1153.31,727.622C1151.84,724.095 1151.84,718.804 1151.84,709.986L1151.84,639.037C1151.84,630.22 1151.84,624.929 1153.31,621.402C1155.16,616.317 1159.17,612.312 1164.26,610.461C1167.78,608.988 1173.07,608.988 1181.89,608.988Z" style="fill:rgb(51,51,51);fill-rule:nonzero;stroke:rgb(50,50,50);stroke-width:1px;"/>
    </g>
    <g transform="matrix(1,0,0,1,-27.6034,301.519)">
        <path d="M245.891,268.062L410.793,268.062C419.611,268.062 424.901,268.062 428.428,269.534C433.513,271.385 437.519,275.39 439.369,280.475C440.842,284.002 440.842,289.293 440.842,298.111L440.842,418.083C440.842,426.901 440.842,432.192 439.369,435.719C437.519,440.804 433.513,444.809 428.428,446.66C424.901,448.132 419.611,448.132 410.793,448.132L245.891,448.132C237.073,448.132 231.782,448.132 228.255,446.66C223.17,444.809 219.165,440.804 217.314,435.719C215.842,432.192 215.842,426.901 215.842,418.083L215.842,298.111C215.842,289.293 215.842,284.002 217.314,280.475C219.165,275.39 223.17,271.385 228.255,269.534C231.782,268.062 237.073,268.062 245.891,268.062Z" style="fill:rgb(31,69,113);fill-opacity:0.17;fill-rule:nonzero;"/>
    </g>
    <g transform="matrix(1,0,0,1,-27.6034,301.519)">
        <path d="M483.104,268.062L638.006,268.062C646.824,268.062 652.115,268.062 655.642,269.534C660.727,271.385 664.732,275.39 666.583,280.475C668.055,284.002 668.055,289.293 668.055,298.111L668.055,418.083C668.055,426.901 668.055,432.192 666.583,435.719C664.732,440.804 660.727,444.809 655.642,446.66C652.115,448.132 646.824,448.132 638.006,448.132L483.104,448.132C474.287,448.132 468.996,448.132 465.469,446.66C460.384,444.809 456.379,440.804 454.528,435.719C453.055,432.192 453.055,426.901 453.055,418.083L453.055,298.111C453.055,289.293 453.055,284.002 454.528,280.475C456.379,275.39 460.384,271.385 465.469,269.534C468.996,268.062 474.287,268.062 483.104,268.062Z" style="fill:rgb(31,69,113);fill-opacity:0.17;fill-rule:nonzero;"/>
    </g>
    <g transform="matrix(1,0,0,1,-27.6034,301.519)">
        <path d="M711.729,268.062L886.631,268.062C895.449,268.062 900.74,268.062 904.267,269.534C909.352,271.385 913.357,275.39 915.208,280.475C916.68,284.002 916.68,289.293 916.68,298.111L916.68,418.083C916.68,426.901 916.68,432.192 915.208,435.719C913.357,440.804 909.352,444.809 904.267,446.66C900.74,448.132 895.449,448.132 886.631,448.132L711.729,448.132C702.912,448.132 697.621,448.132 694.094,446.66C689.009,444.809 685.004,440.804 683.153,435.719C681.68,432.192 681.68,426.901 681.68,418.083L681.68,298.111C681.68,289.293 681.68,284.002 683.153,280.475C685.004,275.39 689.009,271.385 694.094,269.534C697.621,268.062 702.912,268.062 711.729,268.062Z" style="fill:rgb(31,69,113);fill-opacity:0.17;fill-rule:nonzero;"/>
    </g>
    <g transform="matrix(1,0,0,1,-27.6034,301.519)">
        <path d="M959.245,268.062L1114.15,268.062C1122.96,268.062 1128.26,268.062 1131.78,269.534C1136.87,271.385 1140.87,275.39 1142.72,280.475C1144.2,284.002 1144.2,289.293 1144.2,298.111L1144.2,418.083C1144.2,426.901 1144.2,432.192 1142.72,435.719C1140.87,440.804 1136.87,444.809 1131.78,446.66C1128.26,448.132 1122.96,448.132 1114.15,448.132L959.245,448.132C950.427,448.132 945.137,448.132 941.61,446.66C936.525,444.809 932.52,440.804 930.669,435.719C929.196,432.192 929.196,426.901 929.196,418.083L929.196,298.111C929.196,289.293 929.196,284.002 930.669,280.475C932.52,275.39 936.525,271.385 941.61,269.534C945.137,268.062 950.427,268.062 959.245,268.062Z" style="fill:rgb(31,69,113);fill-opacity:0.17;fill-rule:nonzero;"/>
    </g>
    <g transform="matrix(1,0,0,1,-27.6034,301.519)">
        <path d="M1187.57,268.062L1342.47,268.062C1351.29,268.062 1356.58,268.062 1360.11,269.534C1365.19,271.385 1369.2,275.39 1371.05,280.475C1372.52,284.002 1372.52,289.293 1372.52,298.111L1372.52,418.083C1372.52,426.901 1372.52,432.192 1371.05,435.719C1369.2,440.804 1365.19,444.809 1360.11,446.66C1356.58,448.132 1351.29,448.132 1342.47,448.132L1187.57,448.132C1178.75,448.132 1173.46,448.132 1169.93,446.66C1164.85,444.809 1160.84,440.804 1158.99,435.719C1157.52,432.192 1157.52,426.901 1157.52,418.083L1157.52,298.111C1157.52,289.293 1157.52,284.002 1158.99,280.475C1160.84,275.39 1164.85,271.385 1169.93,269.534C1173.46,268.062 1178.75,268.062 1187.57,268.062Z" style="fill:rgb(51,51,51);fill-rule:nonzero;stroke:black;stroke-width:1px;"/>
    </g>
    <g transform="matrix(1,0,0,1,-27.6034,-62.2866)">
        <g>
            <clipPath id="_clip1">
                <rect x="475.611" y="189.062" width="1183.38" height="139.047"/>
            </clipPath>
            <g clip-path="url(#_clip1)">
                <g transform="matrix(1,0,0,-1,479.611,324.109)">
                    <path d="M30.049,131.047L1145.33,131.047C1154.14,131.047 1159.43,131.047 1162.96,129.574C1168.05,127.724 1172.05,123.718 1173.9,118.634C1175.38,115.106 1175.38,109.816 1175.38,100.998L1175.38,30.049C1175.38,21.231 1175.38,15.941 1173.9,12.413C1172.05,7.329 1168.05,3.323 1162.96,1.473C1159.43,0 1154.14,0 1145.33,0L30.049,0C21.231,0 15.94,0 12.413,1.473C7.329,3.323 3.323,7.329 1.473,12.413C0,15.941 0,21.231 0,30.049L0,100.998C0,109.816 0,115.106 1.473,118.634C3.323,123.718 7.329,127.724 12.413,129.574C15.94,131.047 21.231,131.047 30.049,131.047Z" style="fill:none;fill-rule:nonzero;stroke:rgb(2,82,124);stroke-width:6px;stroke-linejoin:miter;stroke-miterlimit:4;"/>
                </g>
                <g transform="matrix(1,0,0,1,632.427,287.499)">
                    <text x="0px" y="0px" style="font-family:'TrebuchetMS-Bold', 'Trebuchet MS', sans-serif;font-weight:700;font-size:80px;fill:rgb(31,69,113);">MH Screening Checklist</text>
                </g>
            </g>
        </g>
    </g>
    <g transform="matrix(1,0,0,1,539.075,359.18)">
        <text x="0px" y="0px" style="font-family:'TrebuchetMS-Bold', 'Trebuchet MS', sans-serif;font-weight:700;font-size:45px;fill:rgb(31,69,113);">Sequence of Responses</text>
    </g>
    <g transform="matrix(1,0,0,1,-27.6034,-62.2866)">
        <g>
            <g transform="matrix(1,0,0,1,1192.42,421.467)">
                <text x="0px" y="0px" style="font-family:'TrebuchetMS-Bold', 'Trebuchet MS', sans-serif;font-weight:700;font-size:45px;fill:white;">4</text>
            </g>
            <g transform="matrix(1,0,0,1,1229.86,421.467)">
                <text x="0px" y="0px" style="font-family:'TrebuchetMS-Bold', 'Trebuchet MS', sans-serif;font-weight:700;font-size:45px;fill:white;">Aggregated Scores</text>
            </g>
        </g>
    </g>
    <g transform="matrix(1,0,0,1,-27.6034,-62.2866)">
        <g transform="matrix(1,0,0,1,265.588,732.981)">
            <text x="0px" y="0px" style="font-family:'TrebuchetMS', 'Trebuchet MS', sans-serif;font-size:40px;fill:rgb(31,69,113);">Missing</text>
        </g>
        <g transform="matrix(1,0,0,1,240.637,779.981)">
            <text x="0px" y="0px" style="font-family:'TrebuchetMS', 'Trebuchet MS', sans-serif;font-size:40px;fill:rgb(31,69,113);">Items RBS</text>
        </g>
        <g transform="matrix(1,0,0,1,26.4623,81.2866)">
            <g transform="matrix(48,0,0,48,316.657,605.148)">
            </g>
            <text x="284.641px" y="605.148px" style="font-family:'Geometric415BT-BlackA', 'Geometr415 Blk BT', sans-serif;font-size:48px;fill:rgb(31,69,113);">A</text>
        </g>
        <g transform="matrix(1,0,0,1,259.953,81.2866)">
            <g transform="matrix(48,0,0,48,314.055,605.148)">
            </g>
            <text x="284.641px" y="605.148px" style="font-family:'Geometric415BT-BlackA', 'Geometr415 Blk BT', sans-serif;font-size:48px;fill:rgb(31,69,113);">B</text>
        </g>
        <g transform="matrix(1,0,0,1,498.578,81.2866)">
            <g transform="matrix(48,0,0,48,316.071,605.148)">
            </g>
            <text x="284.641px" y="605.148px" style="font-family:'Geometric415BT-BlackA', 'Geometr415 Blk BT', sans-serif;font-size:48px;fill:rgb(31,69,113);">C</text>
        </g>
        <g transform="matrix(1,0,0,1,736.096,81.2866)">
            <g transform="matrix(48,0,0,48,319.634,605.148)">
            </g>
            <text x="284.641px" y="605.148px" style="font-family:'Geometric415BT-BlackA', 'Geometr415 Blk BT', sans-serif;font-size:48px;fill:rgb(31,69,113);">D</text>
        </g>
        <g transform="matrix(1,0,0,1,964.418,81.2866)">
            <g transform="matrix(48,0,0,48,311.946,605.148)">
            </g>
            <text x="284.641px" y="605.148px" style="font-family:'Geometric415BT-BlackA', 'Geometr415 Blk BT', sans-serif;font-size:48px;fill:white;">E</text>
        </g>
    </g>
    <g transform="matrix(1,0,0,1,-27.6034,-62.2866)">
        <g transform="matrix(1,0,0,1,487.733,732.981)">
            <text x="0px" y="0px" style="font-family:'TrebuchetMS', 'Trebuchet MS', sans-serif;font-size:40px;fill:rgb(31,69,113);">Sentinel</text>
        </g>
        <g transform="matrix(1,0,0,1,472.85,779.981)">
            <text x="0px" y="0px" style="font-family:'TrebuchetMS', 'Trebuchet MS', sans-serif;font-size:40px;fill:rgb(31,69,113);">Items RBS</text>
        </g>
    </g>
    <g transform="matrix(1,0,0,1,-27.6034,-62.2866)">
        <g transform="matrix(1,0,0,1,698.575,732.481)">
            <text x="0px" y="0px" style="font-family:'TrebuchetMS', 'Trebuchet MS', sans-serif;font-size:40px;fill:rgb(31,69,113);">Uniqueness</text>
        </g>
        <g transform="matrix(1,0,0,1,697.413,779.481)">
            <text x="0px" y="0px" style="font-family:'TrebuchetMS', 'Trebuchet MS', sans-serif;font-size:40px;fill:rgb(31,69,113);">of Seq. RBS</text>
        </g>
    </g>
    <g transform="matrix(1,0,0,1,-27.6034,-62.2866)">
        <g transform="matrix(1,0,0,1,960.603,732.981)">
            <text x="0px" y="0px" style="font-family:'TrebuchetMS', 'Trebuchet MS', sans-serif;font-size:40px;fill:rgb(31,69,113);">Isolation</text>
        </g>
        <g transform="matrix(1,0,0,1,969.167,779.981)">
            <text x="0px" y="0px" style="font-family:'TrebuchetMS', 'Trebuchet MS', sans-serif;font-size:40px;fill:rgb(31,69,113);">Forest I</text>
        </g>
    </g>
    <g transform="matrix(1,0,0,1,-27.6034,-62.2866)">
        <g transform="matrix(1,0,0,1,1188.92,732.981)">
            <text x="0px" y="0px" style="font-family:'TrebuchetMS', 'Trebuchet MS', sans-serif;font-size:40px;fill:white;">Isolation</text>
        </g>
        <g transform="matrix(1,0,0,1,1191.92,779.981)">
            <text x="0px" y="0px" style="font-family:'TrebuchetMS', 'Trebuchet MS', sans-serif;font-size:40px;fill:white;">Forest II</text>
        </g>
    </g>
    <g transform="matrix(1,0,0,1,-158.853,-62.3121)">
        <g>
            <clipPath id="_clip2">
                <rect x="1116.37" y="877.464" width="669" height="138.047"/>
            </clipPath>
            <g clip-path="url(#_clip2)">
                <g transform="matrix(1,0,0,-1,1119.87,1012.01)">
                    <path d="M30.049,131.047L631.951,131.047C640.769,131.047 646.06,131.047 649.587,129.574C654.671,127.724 658.677,123.718 660.527,118.634C662,115.106 662,109.816 662,100.998L662,30.049C662,21.231 662,15.941 660.527,12.413C658.677,7.329 654.671,3.323 649.587,1.473C646.06,0 640.769,0 631.951,0L30.049,0C21.231,0 15.94,0 12.413,1.473C7.329,3.323 3.323,7.329 1.473,12.413C0,15.941 0,21.231 0,30.049L0,100.998C0,109.816 0,115.106 1.473,118.634C3.323,123.718 7.329,127.724 12.413,129.574C15.94,131.047 21.231,131.047 30.049,131.047Z" style="fill:none;fill-rule:nonzero;stroke:rgb(2,82,124);stroke-width:5px;stroke-linejoin:miter;stroke-miterlimit:4;"/>
                </g>
                <g>
                    <g transform="matrix(1,0,0,1,1277.89,946.336)">
                        <text x="0px" y="0px" style="font-family:'TrebuchetMS-Bold', 'Trebuchet MS', sans-serif;font-weight:700;font-size:56px;fill:rgb(31,69,113);">Outlier Score</text>
                    </g>
                    <g transform="matrix(1,0,0,1,1313.17,992.006)">
                        <text x="0px" y="0px" style="font-family:'TrebuchetMS-Bold', 'Trebuchet MS', sans-serif;font-weight:700;font-size:35px;fill:rgb(31,69,113);">between 0 and 1</text>
                    </g>
                </g>
            </g>
        </g>
    </g>
    <g transform="matrix(1,0,0,1,-27.6034,-62.2866)">
        <g transform="matrix(1,0,0,1,27.6034,62.2866)">
            <path d="M927,863.5L960,880L927,896.5L927,863.5Z" style="fill:rgb(31,69,113);"/>
            <path d="M692,771.247L692,880L933.6,880" style="fill:none;stroke:rgb(31,69,113);stroke-width:11px;stroke-linecap:round;stroke-miterlimit:1.5;"/>
        </g>
    </g>
    <g transform="matrix(0,-1,-1,0,168.738,776.342)">
        <g>
            <path d="M0,0L233.452,0" style="fill:none;fill-rule:nonzero;stroke:rgb(196,200,207);stroke-width:11px;stroke-linejoin:miter;stroke-miterlimit:4;"/>
        </g>
    </g>
    <g transform="matrix(1,0,0,-1,163.546,771.247)">
        <g>
            <path d="M0,0L1166.78,0" style="fill:none;fill-rule:nonzero;stroke:rgb(196,200,207);stroke-width:11px;stroke-linejoin:miter;stroke-miterlimit:4;"/>
        </g>
    </g>
    <g transform="matrix(1,0,0,-1,1125.24,771.247)">
        <g>
            <clipPath id="_clip3">
                <rect x="-1" y="-6.5" width="240.353" height="13"/>
            </clipPath>
            <g clip-path="url(#_clip3)">
                <path d="M0,0L238.353,0" style="fill:none;fill-rule:nonzero;stroke:rgb(51,51,51);stroke-width:11px;stroke-linejoin:miter;stroke-miterlimit:4;"/>
            </g>
        </g>
    </g>
    <g transform="matrix(0,-1,-1,0,1363.74,776.342)">
        <g>
            <path d="M0,0L233.452,0" style="fill:none;fill-rule:nonzero;stroke:rgb(51,51,51);stroke-width:11px;stroke-linejoin:miter;stroke-miterlimit:4;"/>
        </g>
    </g>
    <g transform="matrix(1,0,0,1,-27.6034,-62.2866)">
        <g>
            <g transform="matrix(1,0,0,1,196.046,587.295)">
                <text x="0px" y="0px" style="font-family:'TrebuchetMS', 'Trebuchet MS', sans-serif;font-size:35px;fill:rgb(31,69,113);">Outlier Detection</text>
            </g>
            <g transform="matrix(1,0,0,1,479.441,587.295)">
                <text x="0px" y="0px" style="font-family:'TrebuchetMS', 'Trebuchet MS', sans-serif;font-size:35px;fill:rgb(31,69,113);">Pi<tspan x="29.505px " y="0px ">p</tspan>e</text>
            </g>
        </g>
    </g>
    <g transform="matrix(1,0,0,-1,163.546,547.986)">
        <g>
            <path d="M0,0L1166.78,0" style="fill:none;fill-rule:nonzero;stroke:rgb(196,200,207);stroke-width:11px;stroke-linejoin:miter;stroke-miterlimit:4;"/>
        </g>
    </g>
    <g transform="matrix(1,0,0,-1,1129.09,547.986)">
        <g>
            <path d="M0,0L238.353,0" style="fill:none;fill-rule:nonzero;stroke:rgb(51,51,51);stroke-width:11px;stroke-linejoin:miter;stroke-miterlimit:4;"/>
        </g>
    </g>
    <g transform="matrix(1,0,0,1,-27.6034,-62.2866)">
        <g>
            <clipPath id="_clip4">
                <rect x="1046.5" y="490.394" width="97.209" height="95.996"/>
            </clipPath>
            <g clip-path="url(#_clip4)">
                <g transform="matrix(1,0,0,1,0,-7.0708)">
                    <path d="M1116.84,532.456L1131.92,532.456L1095.11,583.106L1058.3,532.456L1073.38,532.456L1073.38,503.965L1116.84,503.965L1116.84,532.456Z" style="fill:rgb(216,223,230);fill-rule:nonzero;"/>
                </g>
                <g transform="matrix(0,1,-1,0,1131.92,496.894)">
                    <path d="M28.491,15.08L28.491,0L79.141,36.809L28.491,73.617L28.491,58.537L0,58.537L0,15.08L28.491,15.08Z" style="fill:none;fill-rule:nonzero;stroke:rgb(31,69,113);stroke-width:11px;stroke-linejoin:miter;stroke-miterlimit:4;"/>
                </g>
            </g>
        </g>
    </g>
    <g transform="matrix(1,0,0,1,-27.6034,-62.2866)">
        <g>
            <clipPath id="_clip5">
                <rect x="1151.5" y="490.394" width="97.209" height="95.996"/>
            </clipPath>
            <g clip-path="url(#_clip5)">
                <g transform="matrix(0,1,-1,0,1236.92,496.894)">
                    <path d="M28.491,15.08L28.491,0L79.141,36.809L28.491,73.617L28.491,58.537L0,58.537L0,15.08L28.491,15.08Z" style="fill-rule:nonzero;stroke:black;stroke-width:11px;stroke-linejoin:miter;stroke-miterlimit:4;"/>
                </g>
            </g>
        </g>
    </g>
</svg>
